<?xml version="1.0" encoding="UTF-8" standalone="no"?>
<!DOCTYPE svg PUBLIC "-//W3C//DTD SVG 1.1//EN" "http://www.w3.org/Graphics/SVG/1.1/DTD/svg11.dtd">
<svg width="100%" height="100%" viewBox="0 0 591 591" version="1.1" xmlns="http://www.w3.org/2000/svg" xmlns:xlink="http://www.w3.org/1999/xlink" xml:space="preserve" xmlns:affinity="https://www.affinity.studio/" style="fill-rule:evenodd;clip-rule:evenodd;stroke-linejoin:round;stroke-miterlimit:2;">
    <g transform="matrix(1,0,0,1,-5290.275591,-4724.409449)">
        <g transform="matrix(1,0,0,1,4995,0)">
            <g id="_108design-cm-flexdate" affinity:id="108design-cm-flexdate" transform="matrix(0.277523,0,0,0.277523,243.657423,3843.430743)">
                <g transform="matrix(1.15152,0,0,1.15152,-211.278422,2344.190294)">
                    <path d="M1730.953,721C1985.929,721 2192.937,928.008 2192.937,1182.984L2192.937,2106.953C2192.937,2361.929 1985.929,2568.937 1730.953,2568.937L806.984,2568.937C552.008,2568.937 345,2361.929 345,2106.953L345,1182.984C345,928.008 552.008,721 806.984,721L1730.953,721Z" style="fill:rgb(240,173,78);"/>
                </g>
                <g id="Frontpage" transform="matrix(0,0.921528,-0.921528,0,2861.340746,3099.370998)">
                    <g transform="matrix(7.726495,0,-0,1.297084,-7551.08879,102.749567)">
                        <g id="topr">
                            <path d="M1215.299,656C1229.019,656 1240.157,722.352 1240.157,804.08L1240.157,1741.92C1240.157,1823.648 1229.019,1890 1215.299,1890L1057.859,1890C1044.139,1890 1033,1823.648 1033,1741.92L1033,804.08C1033,722.352 1044.139,656 1057.859,656L1215.299,656Z" style="fill:rgb(211,211,211);"/>
                        </g>
                    </g>
                </g>
                <g transform="matrix(0,-3.603307,1.895886,0,-8314.871275,24357.946083)">
                    <rect x="5455" y="4655" width="260" height="778" style="fill:white;"/>
                    <path d="M5715,4655L5715,5433L5455,5433L5455,4655L5715,4655ZM5704.417,4675.113L5465.583,4675.113L5465.583,5412.887L5704.417,5412.887L5704.417,4675.113Z" style="fill:white;"/>
                </g>
                <g transform="matrix(22.760772,0,0,22.760772,-123585.017071,-107548.307008)">
                    <path d="M5469.495,4893.674C5469.495,4893.387 5469.579,4893.164 5469.747,4893.004C5469.914,4892.845 5470.125,4892.765 5470.381,4892.765C5470.632,4892.765 5470.843,4892.845 5471.012,4893.004C5471.182,4893.164 5471.266,4893.387 5471.266,4893.674C5471.266,4893.962 5471.182,4894.186 5471.012,4894.348C5470.843,4894.509 5470.632,4894.59 5470.381,4894.59C5470.125,4894.59 5469.914,4894.509 5469.747,4894.348C5469.579,4894.186 5469.495,4893.962 5469.495,4893.674ZM5470.381,4893.13C5470.253,4893.13 5470.151,4893.174 5470.076,4893.262C5470,4893.349 5469.962,4893.487 5469.962,4893.674C5469.962,4893.858 5470,4893.995 5470.076,4894.087C5470.151,4894.179 5470.253,4894.225 5470.381,4894.225C5470.504,4894.225 5470.604,4894.179 5470.68,4894.087C5470.756,4893.995 5470.794,4893.858 5470.794,4893.674C5470.794,4893.487 5470.756,4893.349 5470.68,4893.262C5470.604,4893.174 5470.504,4893.13 5470.381,4893.13ZM5472.457,4892.807L5473.043,4892.807L5470.632,4896.995L5470.046,4896.995L5472.457,4892.807ZM5471.835,4896.128C5471.835,4895.84 5471.92,4895.616 5472.089,4895.454C5472.259,4895.293 5472.469,4895.212 5472.72,4895.212C5472.972,4895.212 5473.182,4895.293 5473.352,4895.454C5473.521,4895.616 5473.606,4895.84 5473.606,4896.128C5473.606,4896.411 5473.521,4896.633 5473.352,4896.795C5473.182,4896.956 5472.972,4897.037 5472.72,4897.037C5472.469,4897.037 5472.259,4896.956 5472.089,4896.795C5471.92,4896.633 5471.835,4896.411 5471.835,4896.128ZM5472.72,4895.583C5472.593,4895.583 5472.491,4895.627 5472.415,4895.715C5472.339,4895.802 5472.301,4895.94 5472.301,4896.128C5472.301,4896.311 5472.339,4896.447 5472.415,4896.534C5472.491,4896.622 5472.593,4896.666 5472.72,4896.666C5472.84,4896.666 5472.939,4896.622 5473.016,4896.534C5473.094,4896.447 5473.133,4896.311 5473.133,4896.128C5473.133,4895.94 5473.094,4895.802 5473.016,4895.715C5472.939,4895.627 5472.84,4895.583 5472.72,4895.583Z" style="fill:rgb(112,0,132);fill-rule:nonzero;"/>
                    <path d="M5476.574,4894.512L5476.508,4894.53L5476.508,4892.687L5477.076,4892.687L5477.076,4896.995L5476.562,4896.995L5476.52,4896.546C5476.42,4896.682 5476.285,4896.798 5476.116,4896.893C5475.946,4896.989 5475.74,4897.037 5475.497,4897.037C5475.225,4897.037 5474.989,4896.973 5474.788,4896.846C5474.586,4896.718 5474.429,4896.538 5474.315,4896.307C5474.201,4896.076 5474.144,4895.806 5474.144,4895.499C5474.144,4895.192 5474.201,4894.923 5474.315,4894.692C5474.429,4894.46 5474.586,4894.281 5474.788,4894.153C5474.989,4894.025 5475.225,4893.962 5475.497,4893.962C5475.756,4893.962 5475.976,4894.014 5476.158,4894.12C5476.339,4894.226 5476.478,4894.356 5476.574,4894.512ZM5474.749,4895.499C5474.749,4895.806 5474.828,4896.054 5474.988,4896.241C5475.148,4896.429 5475.361,4896.523 5475.628,4896.523C5475.792,4896.523 5475.939,4896.483 5476.071,4896.403C5476.203,4896.323 5476.308,4896.206 5476.388,4896.053C5476.468,4895.899 5476.508,4895.715 5476.508,4895.499C5476.508,4895.284 5476.468,4895.1 5476.388,4894.949C5476.308,4894.797 5476.203,4894.681 5476.071,4894.599C5475.939,4894.517 5475.792,4894.476 5475.628,4894.476C5475.365,4894.476 5475.153,4894.57 5474.991,4894.757C5474.829,4894.945 5474.749,4895.192 5474.749,4895.499Z" style="fill:rgb(112,0,132);fill-rule:nonzero;"/>
                    <path d="M5478.243,4897.031C5478.135,4897.031 5478.044,4896.993 5477.968,4896.917C5477.892,4896.842 5477.854,4896.75 5477.854,4896.642C5477.854,4896.53 5477.892,4896.437 5477.968,4896.361C5478.044,4896.285 5478.135,4896.247 5478.243,4896.247C5478.351,4896.247 5478.442,4896.285 5478.518,4896.361C5478.594,4896.437 5478.632,4896.53 5478.632,4896.642C5478.632,4896.75 5478.594,4896.842 5478.518,4896.917C5478.442,4896.993 5478.351,4897.031 5478.243,4897.031Z" style="fill:rgb(112,0,132);fill-rule:nonzero;"/>
                    <path d="M5479.272,4893.674C5479.272,4893.387 5479.356,4893.164 5479.523,4893.004C5479.691,4892.845 5479.902,4892.765 5480.158,4892.765C5480.409,4892.765 5480.619,4892.845 5480.789,4893.004C5480.959,4893.164 5481.043,4893.387 5481.043,4893.674C5481.043,4893.962 5480.959,4894.186 5480.789,4894.348C5480.619,4894.509 5480.409,4894.59 5480.158,4894.59C5479.902,4894.59 5479.691,4894.509 5479.523,4894.348C5479.356,4894.186 5479.272,4893.962 5479.272,4893.674ZM5480.158,4893.13C5480.03,4893.13 5479.928,4893.174 5479.853,4893.262C5479.777,4893.349 5479.739,4893.487 5479.739,4893.674C5479.739,4893.858 5479.777,4893.995 5479.853,4894.087C5479.928,4894.179 5480.03,4894.225 5480.158,4894.225C5480.281,4894.225 5480.381,4894.179 5480.457,4894.087C5480.533,4893.995 5480.571,4893.858 5480.571,4893.674C5480.571,4893.487 5480.533,4893.349 5480.457,4893.262C5480.381,4893.174 5480.281,4893.13 5480.158,4893.13ZM5482.234,4892.807L5482.82,4892.807L5480.409,4896.995L5479.823,4896.995L5482.234,4892.807ZM5481.612,4896.128C5481.612,4895.84 5481.696,4895.616 5481.866,4895.454C5482.036,4895.293 5482.246,4895.212 5482.497,4895.212C5482.749,4895.212 5482.959,4895.293 5483.129,4895.454C5483.298,4895.616 5483.383,4895.84 5483.383,4896.128C5483.383,4896.411 5483.298,4896.633 5483.129,4896.795C5482.959,4896.956 5482.749,4897.037 5482.497,4897.037C5482.246,4897.037 5482.036,4896.956 5481.866,4896.795C5481.696,4896.633 5481.612,4896.411 5481.612,4896.128ZM5482.497,4895.583C5482.37,4895.583 5482.268,4895.627 5482.192,4895.715C5482.116,4895.802 5482.078,4895.94 5482.078,4896.128C5482.078,4896.311 5482.116,4896.447 5482.192,4896.534C5482.268,4896.622 5482.37,4896.666 5482.497,4896.666C5482.617,4896.666 5482.716,4896.622 5482.793,4896.534C5482.871,4896.447 5482.91,4896.311 5482.91,4896.128C5482.91,4895.94 5482.871,4895.802 5482.793,4895.715C5482.716,4895.627 5482.617,4895.583 5482.497,4895.583Z" style="fill:rgb(112,0,132);fill-rule:nonzero;"/>
                    <path d="M5484.095,4894.003L5484.609,4894.003L5484.645,4894.351C5484.741,4894.231 5484.861,4894.136 5485.004,4894.066C5485.148,4893.996 5485.309,4893.962 5485.489,4893.962C5485.692,4893.962 5485.877,4894.006 5486.042,4894.096C5486.208,4894.186 5486.339,4894.319 5486.434,4894.494C5486.534,4894.319 5486.676,4894.186 5486.859,4894.096C5487.043,4894.006 5487.244,4893.962 5487.464,4893.962C5487.691,4893.962 5487.891,4894.01 5488.065,4894.108C5488.238,4894.206 5488.373,4894.351 5488.469,4894.542C5488.564,4894.733 5488.612,4894.973 5488.612,4895.26L5488.612,4896.995L5488.044,4896.995L5488.044,4895.332C5488.044,4895.053 5487.984,4894.84 5487.864,4894.695C5487.745,4894.549 5487.573,4894.476 5487.35,4894.476C5487.122,4894.476 5486.943,4894.552 5486.811,4894.704C5486.68,4894.855 5486.614,4895.077 5486.614,4895.368L5486.614,4896.995L5486.045,4896.995L5486.045,4895.332C5486.045,4895.053 5485.99,4894.84 5485.878,4894.695C5485.766,4894.549 5485.599,4894.476 5485.375,4894.476C5485.148,4894.476 5484.971,4894.552 5484.846,4894.704C5484.72,4894.855 5484.657,4895.077 5484.657,4895.368L5484.657,4896.995L5484.095,4896.995L5484.095,4894.003Z" style="fill:rgb(112,0,132);fill-rule:nonzero;"/>
                    <path d="M5489.731,4897.031C5489.624,4897.031 5489.532,4896.993 5489.456,4896.917C5489.38,4896.842 5489.342,4896.75 5489.342,4896.642C5489.342,4896.53 5489.38,4896.437 5489.456,4896.361C5489.532,4896.285 5489.624,4896.247 5489.731,4896.247C5489.839,4896.247 5489.931,4896.285 5490.006,4896.361C5490.082,4896.437 5490.12,4896.53 5490.12,4896.642C5490.12,4896.75 5490.082,4896.842 5490.006,4896.917C5489.931,4896.993 5489.839,4897.031 5489.731,4897.031Z" style="fill:rgb(112,0,132);fill-rule:nonzero;"/>
                    <path d="M5490.76,4893.674C5490.76,4893.387 5490.844,4893.164 5491.012,4893.004C5491.179,4892.845 5491.391,4892.765 5491.646,4892.765C5491.897,4892.765 5492.108,4892.845 5492.277,4893.004C5492.447,4893.164 5492.532,4893.387 5492.532,4893.674C5492.532,4893.962 5492.447,4894.186 5492.277,4894.348C5492.108,4894.509 5491.897,4894.59 5491.646,4894.59C5491.391,4894.59 5491.179,4894.509 5491.012,4894.348C5490.844,4894.186 5490.76,4893.962 5490.76,4893.674ZM5491.646,4893.13C5491.518,4893.13 5491.417,4893.174 5491.341,4893.262C5491.265,4893.349 5491.227,4893.487 5491.227,4893.674C5491.227,4893.858 5491.265,4893.995 5491.341,4894.087C5491.417,4894.179 5491.518,4894.225 5491.646,4894.225C5491.77,4894.225 5491.869,4894.179 5491.945,4894.087C5492.021,4893.995 5492.059,4893.858 5492.059,4893.674C5492.059,4893.487 5492.021,4893.349 5491.945,4893.262C5491.869,4893.174 5491.77,4893.13 5491.646,4893.13ZM5493.722,4892.807L5494.309,4892.807L5491.897,4896.995L5491.311,4896.995L5493.722,4892.807ZM5493.1,4896.128C5493.1,4895.84 5493.185,4895.616 5493.354,4895.454C5493.524,4895.293 5493.734,4895.212 5493.985,4895.212C5494.237,4895.212 5494.447,4895.293 5494.617,4895.454C5494.786,4895.616 5494.871,4895.84 5494.871,4896.128C5494.871,4896.411 5494.786,4896.633 5494.617,4896.795C5494.447,4896.956 5494.237,4897.037 5493.985,4897.037C5493.734,4897.037 5493.524,4896.956 5493.354,4896.795C5493.185,4896.633 5493.1,4896.411 5493.1,4896.128ZM5493.985,4895.583C5493.858,4895.583 5493.756,4895.627 5493.68,4895.715C5493.605,4895.802 5493.567,4895.94 5493.567,4896.128C5493.567,4896.311 5493.605,4896.447 5493.68,4896.534C5493.756,4896.622 5493.858,4896.666 5493.985,4896.666C5494.105,4896.666 5494.204,4896.622 5494.282,4896.534C5494.359,4896.447 5494.398,4896.311 5494.398,4896.128C5494.398,4895.94 5494.359,4895.802 5494.282,4895.715C5494.204,4895.627 5494.105,4895.583 5493.985,4895.583Z" style="fill:rgb(112,0,132);fill-rule:nonzero;"/>
                    <path d="M5498.335,4892.807L5499,4892.807L5497.45,4895.44L5497.45,4896.995L5496.858,4896.995L5496.858,4895.445L5495.308,4892.807L5495.972,4892.807L5497.151,4894.895L5498.335,4892.807Z" style="fill:rgb(112,0,132);fill-rule:nonzero;"/>
                    <path d="M5457.534,4907.587C5457.534,4907.1 5457.677,4906.72 5457.961,4906.449C5458.246,4906.178 5458.605,4906.043 5459.038,4906.043C5459.465,4906.043 5459.822,4906.178 5460.11,4906.449C5460.398,4906.72 5460.542,4907.1 5460.542,4907.587C5460.542,4908.075 5460.398,4908.456 5460.11,4908.73C5459.822,4909.005 5459.465,4909.142 5459.038,4909.142C5458.605,4909.142 5458.246,4909.005 5457.961,4908.73C5457.677,4908.456 5457.534,4908.075 5457.534,4907.587ZM5459.038,4906.663C5458.821,4906.663 5458.649,4906.737 5458.52,4906.886C5458.391,4907.035 5458.327,4907.269 5458.327,4907.587C5458.327,4907.899 5458.391,4908.133 5458.52,4908.288C5458.649,4908.444 5458.821,4908.522 5459.038,4908.522C5459.248,4908.522 5459.417,4908.444 5459.546,4908.288C5459.675,4908.133 5459.739,4907.899 5459.739,4907.587C5459.739,4907.269 5459.675,4907.035 5459.546,4906.886C5459.417,4906.737 5459.248,4906.663 5459.038,4906.663ZM5462.564,4906.114L5463.559,4906.114L5459.465,4913.226L5458.469,4913.226L5462.564,4906.114ZM5461.507,4911.753C5461.507,4911.265 5461.651,4910.884 5461.939,4910.61C5462.227,4910.336 5462.584,4910.199 5463.011,4910.199C5463.437,4910.199 5463.795,4910.336 5464.083,4910.61C5464.371,4910.884 5464.514,4911.265 5464.514,4911.753C5464.514,4912.234 5464.371,4912.612 5464.083,4912.886C5463.795,4913.16 5463.437,4913.297 5463.011,4913.297C5462.584,4913.297 5462.227,4913.16 5461.939,4912.886C5461.651,4912.612 5461.507,4912.234 5461.507,4911.753ZM5463.011,4910.828C5462.794,4910.828 5462.621,4910.903 5462.493,4911.052C5462.364,4911.201 5462.3,4911.435 5462.3,4911.753C5462.3,4912.065 5462.364,4912.295 5462.493,4912.444C5462.621,4912.593 5462.794,4912.667 5463.011,4912.667C5463.214,4912.667 5463.382,4912.593 5463.514,4912.444C5463.646,4912.295 5463.712,4912.065 5463.712,4911.753C5463.712,4911.435 5463.646,4911.201 5463.514,4911.052C5463.382,4910.903 5463.214,4910.828 5463.011,4910.828Z" style="fill:rgb(112,0,132);fill-rule:nonzero;"/>
                    <path d="M5469.554,4909.01L5469.442,4909.04L5469.442,4905.911L5470.407,4905.911L5470.407,4913.226L5469.534,4913.226L5469.462,4912.464C5469.293,4912.695 5469.065,4912.891 5468.777,4913.054C5468.489,4913.216 5468.138,4913.297 5467.725,4913.297C5467.264,4913.297 5466.863,4913.189 5466.521,4912.972C5466.179,4912.756 5465.911,4912.451 5465.718,4912.058C5465.525,4911.665 5465.429,4911.208 5465.429,4910.686C5465.429,4910.165 5465.525,4909.707 5465.718,4909.315C5465.911,4908.922 5466.179,4908.617 5466.521,4908.4C5466.863,4908.183 5467.264,4908.075 5467.725,4908.075C5468.165,4908.075 5468.54,4908.165 5468.848,4908.344C5469.156,4908.524 5469.391,4908.746 5469.554,4909.01ZM5466.455,4910.686C5466.455,4911.208 5466.591,4911.628 5466.861,4911.946C5467.132,4912.264 5467.495,4912.424 5467.949,4912.424C5468.226,4912.424 5468.477,4912.356 5468.7,4912.22C5468.924,4912.085 5469.103,4911.887 5469.239,4911.626C5469.374,4911.365 5469.442,4911.052 5469.442,4910.686C5469.442,4910.32 5469.374,4910.009 5469.239,4909.751C5469.103,4909.494 5468.924,4909.296 5468.7,4909.157C5468.477,4909.018 5468.226,4908.949 5467.949,4908.949C5467.502,4908.949 5467.141,4909.108 5466.867,4909.426C5466.592,4909.745 5466.455,4910.165 5466.455,4910.686Z" style="fill:rgb(112,0,132);fill-rule:nonzero;"/>
                    <path d="M5472.389,4913.287C5472.206,4913.287 5472.05,4913.223 5471.921,4913.094C5471.793,4912.965 5471.728,4912.81 5471.728,4912.627C5471.728,4912.437 5471.793,4912.278 5471.921,4912.149C5472.05,4912.021 5472.206,4911.956 5472.389,4911.956C5472.571,4911.956 5472.727,4912.021 5472.856,4912.149C5472.985,4912.278 5473.049,4912.437 5473.049,4912.627C5473.049,4912.81 5472.985,4912.965 5472.856,4913.094C5472.727,4913.223 5472.571,4913.287 5472.389,4913.287Z" style="fill:rgb(112,0,132);fill-rule:nonzero;"/>
                    <path d="M5476.981,4907.587C5476.981,4907.1 5477.123,4906.72 5477.408,4906.449C5477.692,4906.178 5478.051,4906.043 5478.485,4906.043C5478.911,4906.043 5479.269,4906.178 5479.557,4906.449C5479.845,4906.72 5479.988,4907.1 5479.988,4907.587C5479.988,4908.075 5479.845,4908.456 5479.557,4908.73C5479.269,4909.005 5478.911,4909.142 5478.485,4909.142C5478.051,4909.142 5477.692,4909.005 5477.408,4908.73C5477.123,4908.456 5476.981,4908.075 5476.981,4907.587ZM5478.485,4906.663C5478.268,4906.663 5478.095,4906.737 5477.967,4906.886C5477.838,4907.035 5477.774,4907.269 5477.774,4907.587C5477.774,4907.899 5477.838,4908.133 5477.967,4908.288C5478.095,4908.444 5478.268,4908.522 5478.485,4908.522C5478.695,4908.522 5478.864,4908.444 5478.993,4908.288C5479.121,4908.133 5479.186,4907.899 5479.186,4907.587C5479.186,4907.269 5479.121,4907.035 5478.993,4906.886C5478.864,4906.737 5478.695,4906.663 5478.485,4906.663ZM5482.01,4906.114L5483.006,4906.114L5478.911,4913.226L5477.916,4913.226L5482.01,4906.114ZM5480.954,4911.753C5480.954,4911.265 5481.098,4910.884 5481.385,4910.61C5481.673,4910.336 5482.031,4910.199 5482.457,4910.199C5482.884,4910.199 5483.241,4910.336 5483.529,4910.61C5483.817,4910.884 5483.961,4911.265 5483.961,4911.753C5483.961,4912.234 5483.817,4912.612 5483.529,4912.886C5483.241,4913.16 5482.884,4913.297 5482.457,4913.297C5482.031,4913.297 5481.673,4913.16 5481.385,4912.886C5481.098,4912.612 5480.954,4912.234 5480.954,4911.753ZM5482.457,4910.828C5482.241,4910.828 5482.068,4910.903 5481.939,4911.052C5481.811,4911.201 5481.746,4911.435 5481.746,4911.753C5481.746,4912.065 5481.811,4912.295 5481.939,4912.444C5482.068,4912.593 5482.241,4912.667 5482.457,4912.667C5482.661,4912.667 5482.828,4912.593 5482.96,4912.444C5483.092,4912.295 5483.158,4912.065 5483.158,4911.753C5483.158,4911.435 5483.092,4911.201 5482.96,4911.052C5482.828,4910.903 5482.661,4910.828 5482.457,4910.828Z" style="fill:rgb(112,0,132);fill-rule:nonzero;"/>
                    <path d="M5489.488,4908.085C5489.488,4907.74 5489.375,4907.467 5489.148,4907.267C5488.921,4907.067 5488.594,4906.968 5488.167,4906.968L5486.257,4906.968L5486.257,4909.193L5488.178,4909.193C5488.591,4909.193 5488.912,4909.094 5489.143,4908.898C5489.373,4908.702 5489.488,4908.431 5489.488,4908.085ZM5485.241,4913.226L5485.241,4906.114L5488.259,4906.114C5488.76,4906.114 5489.177,4906.199 5489.509,4906.368C5489.84,4906.537 5490.089,4906.761 5490.255,4907.039C5490.421,4907.316 5490.504,4907.625 5490.504,4907.963C5490.504,4908.282 5490.445,4908.549 5490.326,4908.766C5490.208,4908.983 5490.052,4909.155 5489.859,4909.284C5489.666,4909.413 5489.448,4909.504 5489.204,4909.558L5489.204,4909.63C5489.495,4909.67 5489.751,4909.757 5489.971,4909.889C5490.191,4910.021 5490.364,4910.205 5490.489,4910.442C5490.614,4910.679 5490.677,4910.974 5490.677,4911.326C5490.677,4911.679 5490.586,4912 5490.403,4912.292C5490.22,4912.583 5489.957,4912.811 5489.615,4912.977C5489.273,4913.143 5488.858,4913.226 5488.371,4913.226L5485.241,4913.226ZM5486.257,4912.373L5488.279,4912.373C5488.713,4912.373 5489.053,4912.273 5489.3,4912.073C5489.547,4911.873 5489.671,4911.587 5489.671,4911.215C5489.671,4910.835 5489.541,4910.546 5489.28,4910.346C5489.019,4910.146 5488.675,4910.046 5488.249,4910.046L5486.257,4910.046L5486.257,4912.373Z" style="fill:rgb(112,0,132);fill-rule:nonzero;"/>
                    <path d="M5492.465,4913.287C5492.282,4913.287 5492.126,4913.223 5491.998,4913.094C5491.869,4912.965 5491.805,4912.81 5491.805,4912.627C5491.805,4912.437 5491.869,4912.278 5491.998,4912.149C5492.126,4912.021 5492.282,4911.956 5492.465,4911.956C5492.648,4911.956 5492.804,4912.021 5492.933,4912.149C5493.061,4912.278 5493.126,4912.437 5493.126,4912.627C5493.126,4912.81 5493.061,4912.965 5492.933,4913.094C5492.804,4913.223 5492.648,4913.287 5492.465,4913.287Z" style="fill:rgb(112,0,132);fill-rule:nonzero;"/>
                    <path d="M5497.058,4907.587C5497.058,4907.1 5497.2,4906.72 5497.484,4906.449C5497.769,4906.178 5498.128,4906.043 5498.561,4906.043C5498.988,4906.043 5499.345,4906.178 5499.633,4906.449C5499.921,4906.72 5500.065,4907.1 5500.065,4907.587C5500.065,4908.075 5499.921,4908.456 5499.633,4908.73C5499.345,4909.005 5498.988,4909.142 5498.561,4909.142C5498.128,4909.142 5497.769,4909.005 5497.484,4908.73C5497.2,4908.456 5497.058,4908.075 5497.058,4907.587ZM5498.561,4906.663C5498.345,4906.663 5498.172,4906.737 5498.043,4906.886C5497.914,4907.035 5497.85,4907.269 5497.85,4907.587C5497.85,4907.899 5497.914,4908.133 5498.043,4908.288C5498.172,4908.444 5498.345,4908.522 5498.561,4908.522C5498.771,4908.522 5498.941,4908.444 5499.069,4908.288C5499.198,4908.133 5499.262,4907.899 5499.262,4907.587C5499.262,4907.269 5499.198,4907.035 5499.069,4906.886C5498.941,4906.737 5498.771,4906.663 5498.561,4906.663ZM5502.087,4906.114L5503.083,4906.114L5498.988,4913.226L5497.992,4913.226L5502.087,4906.114ZM5501.03,4911.753C5501.03,4911.265 5501.174,4910.884 5501.462,4910.61C5501.75,4910.336 5502.107,4910.199 5502.534,4910.199C5502.961,4910.199 5503.318,4910.336 5503.606,4910.61C5503.894,4910.884 5504.038,4911.265 5504.038,4911.753C5504.038,4912.234 5503.894,4912.612 5503.606,4912.886C5503.318,4913.16 5502.961,4913.297 5502.534,4913.297C5502.107,4913.297 5501.75,4913.16 5501.462,4912.886C5501.174,4912.612 5501.03,4912.234 5501.03,4911.753ZM5502.534,4910.828C5502.317,4910.828 5502.144,4910.903 5502.016,4911.052C5501.887,4911.201 5501.823,4911.435 5501.823,4911.753C5501.823,4912.065 5501.887,4912.295 5502.016,4912.444C5502.144,4912.593 5502.317,4912.667 5502.534,4912.667C5502.737,4912.667 5502.905,4912.593 5503.037,4912.444C5503.169,4912.295 5503.235,4912.065 5503.235,4911.753C5503.235,4911.435 5503.169,4911.201 5503.037,4911.052C5502.905,4910.903 5502.737,4910.828 5502.534,4910.828Z" style="fill:rgb(112,0,132);fill-rule:nonzero;"/>
                    <path d="M5509.92,4906.114L5511.048,4906.114L5508.417,4910.585L5508.417,4913.226L5507.411,4913.226L5507.411,4910.595L5504.779,4906.114L5505.907,4906.114L5507.909,4909.66L5509.92,4906.114Z" style="fill:rgb(112,0,132);fill-rule:nonzero;"/>
                    <path d="M5468.272,4926.137C5468.272,4925.849 5468.355,4925.626 5468.523,4925.466C5468.69,4925.307 5468.902,4925.227 5469.157,4925.227C5469.408,4925.227 5469.619,4925.307 5469.788,4925.466C5469.958,4925.626 5470.043,4925.849 5470.043,4926.137C5470.043,4926.424 5469.958,4926.648 5469.788,4926.81C5469.619,4926.971 5469.408,4927.052 5469.157,4927.052C5468.902,4927.052 5468.69,4926.971 5468.523,4926.81C5468.355,4926.648 5468.272,4926.424 5468.272,4926.137ZM5469.157,4925.592C5469.03,4925.592 5468.928,4925.636 5468.852,4925.724C5468.776,4925.811 5468.738,4925.949 5468.738,4926.137C5468.738,4926.32 5468.776,4926.458 5468.852,4926.549C5468.928,4926.641 5469.03,4926.687 5469.157,4926.687C5469.281,4926.687 5469.381,4926.641 5469.456,4926.549C5469.532,4926.458 5469.57,4926.32 5469.57,4926.137C5469.57,4925.949 5469.532,4925.811 5469.456,4925.724C5469.381,4925.636 5469.281,4925.592 5469.157,4925.592ZM5471.233,4925.269L5471.82,4925.269L5469.408,4929.457L5468.822,4929.457L5471.233,4925.269ZM5470.611,4928.59C5470.611,4928.303 5470.696,4928.078 5470.865,4927.917C5471.035,4927.755 5471.245,4927.674 5471.497,4927.674C5471.748,4927.674 5471.958,4927.755 5472.128,4927.917C5472.297,4928.078 5472.382,4928.303 5472.382,4928.59C5472.382,4928.873 5472.297,4929.095 5472.128,4929.257C5471.958,4929.418 5471.748,4929.499 5471.497,4929.499C5471.245,4929.499 5471.035,4929.418 5470.865,4929.257C5470.696,4929.095 5470.611,4928.873 5470.611,4928.59ZM5471.497,4928.045C5471.369,4928.045 5471.267,4928.089 5471.192,4928.177C5471.116,4928.265 5471.078,4928.402 5471.078,4928.59C5471.078,4928.773 5471.116,4928.909 5471.192,4928.997C5471.267,4929.084 5471.369,4929.128 5471.497,4929.128C5471.616,4929.128 5471.715,4929.084 5471.793,4928.997C5471.871,4928.909 5471.91,4928.773 5471.91,4928.59C5471.91,4928.402 5471.871,4928.265 5471.793,4928.177C5471.715,4928.089 5471.616,4928.045 5471.497,4928.045Z" style="fill:rgb(112,0,132);fill-rule:nonzero;"/>
                    <path d="M5475.135,4926.466L5475.721,4926.466L5473.986,4930.654L5473.429,4930.654L5473.956,4929.398L5472.771,4926.466L5473.393,4926.466L5474.261,4928.733L5475.135,4926.466Z" style="fill:rgb(112,0,132);fill-rule:nonzero;"/>
                    <rect x="5476.182" y="4927.543" width="2.417" height="0.503" style="fill:rgb(112,0,132);fill-rule:nonzero;"/>
                    <path d="M5479.245,4926.137C5479.245,4925.849 5479.329,4925.626 5479.497,4925.466C5479.664,4925.307 5479.876,4925.227 5480.131,4925.227C5480.382,4925.227 5480.593,4925.307 5480.762,4925.466C5480.932,4925.626 5481.016,4925.849 5481.016,4926.137C5481.016,4926.424 5480.932,4926.648 5480.762,4926.81C5480.593,4926.971 5480.382,4927.052 5480.131,4927.052C5479.876,4927.052 5479.664,4926.971 5479.497,4926.81C5479.329,4926.648 5479.245,4926.424 5479.245,4926.137ZM5480.131,4925.592C5480.003,4925.592 5479.901,4925.636 5479.826,4925.724C5479.75,4925.811 5479.712,4925.949 5479.712,4926.137C5479.712,4926.32 5479.75,4926.458 5479.826,4926.549C5479.901,4926.641 5480.003,4926.687 5480.131,4926.687C5480.254,4926.687 5480.354,4926.641 5480.43,4926.549C5480.506,4926.458 5480.544,4926.32 5480.544,4926.137C5480.544,4925.949 5480.506,4925.811 5480.43,4925.724C5480.354,4925.636 5480.254,4925.592 5480.131,4925.592ZM5482.207,4925.269L5482.793,4925.269L5480.382,4929.457L5479.796,4929.457L5482.207,4925.269ZM5481.585,4928.59C5481.585,4928.303 5481.67,4928.078 5481.839,4927.917C5482.009,4927.755 5482.219,4927.674 5482.47,4927.674C5482.722,4927.674 5482.932,4927.755 5483.102,4927.917C5483.271,4928.078 5483.356,4928.303 5483.356,4928.59C5483.356,4928.873 5483.271,4929.095 5483.102,4929.257C5482.932,4929.418 5482.722,4929.499 5482.47,4929.499C5482.219,4929.499 5482.009,4929.418 5481.839,4929.257C5481.67,4929.095 5481.585,4928.873 5481.585,4928.59ZM5482.47,4928.045C5482.343,4928.045 5482.241,4928.089 5482.165,4928.177C5482.089,4928.265 5482.052,4928.402 5482.052,4928.59C5482.052,4928.773 5482.089,4928.909 5482.165,4928.997C5482.241,4929.084 5482.343,4929.128 5482.47,4929.128C5482.59,4929.128 5482.689,4929.084 5482.767,4928.997C5482.844,4928.909 5482.883,4928.773 5482.883,4928.59C5482.883,4928.402 5482.844,4928.265 5482.767,4928.177C5482.689,4928.089 5482.59,4928.045 5482.47,4928.045Z" style="fill:rgb(112,0,132);fill-rule:nonzero;"/>
                    <path d="M5484.068,4926.466L5484.583,4926.466L5484.618,4926.813C5484.714,4926.693 5484.834,4926.598 5484.977,4926.528C5485.121,4926.459 5485.283,4926.424 5485.462,4926.424C5485.666,4926.424 5485.85,4926.469 5486.016,4926.558C5486.181,4926.648 5486.312,4926.781 5486.407,4926.956C5486.507,4926.781 5486.649,4926.648 5486.832,4926.558C5487.016,4926.469 5487.217,4926.424 5487.437,4926.424C5487.664,4926.424 5487.864,4926.473 5488.038,4926.57C5488.211,4926.668 5488.346,4926.813 5488.442,4927.004C5488.538,4927.196 5488.585,4927.435 5488.585,4927.722L5488.585,4929.457L5488.017,4929.457L5488.017,4927.794C5488.017,4927.515 5487.957,4927.302 5487.837,4927.157C5487.718,4927.011 5487.546,4926.938 5487.323,4926.938C5487.096,4926.938 5486.916,4927.014 5486.784,4927.166C5486.653,4927.317 5486.587,4927.539 5486.587,4927.83L5486.587,4929.457L5486.019,4929.457L5486.019,4927.794C5486.019,4927.515 5485.963,4927.302 5485.851,4927.157C5485.739,4927.011 5485.572,4926.938 5485.348,4926.938C5485.121,4926.938 5484.944,4927.014 5484.819,4927.166C5484.693,4927.317 5484.63,4927.539 5484.63,4927.83L5484.63,4929.457L5484.068,4929.457L5484.068,4926.466Z" style="fill:rgb(112,0,132);fill-rule:nonzero;"/>
                    <rect x="5489.315" y="4927.543" width="2.417" height="0.503" style="fill:rgb(112,0,132);fill-rule:nonzero;"/>
                    <path d="M5492.379,4926.137C5492.379,4925.849 5492.463,4925.626 5492.63,4925.466C5492.798,4925.307 5493.009,4925.227 5493.264,4925.227C5493.516,4925.227 5493.726,4925.307 5493.896,4925.466C5494.065,4925.626 5494.15,4925.849 5494.15,4926.137C5494.15,4926.424 5494.065,4926.648 5493.896,4926.81C5493.726,4926.971 5493.516,4927.052 5493.264,4927.052C5493.009,4927.052 5492.798,4926.971 5492.63,4926.81C5492.463,4926.648 5492.379,4926.424 5492.379,4926.137ZM5493.264,4925.592C5493.137,4925.592 5493.035,4925.636 5492.959,4925.724C5492.884,4925.811 5492.846,4925.949 5492.846,4926.137C5492.846,4926.32 5492.884,4926.458 5492.959,4926.549C5493.035,4926.641 5493.137,4926.687 5493.264,4926.687C5493.388,4926.687 5493.488,4926.641 5493.564,4926.549C5493.639,4926.458 5493.677,4926.32 5493.677,4926.137C5493.677,4925.949 5493.639,4925.811 5493.564,4925.724C5493.488,4925.636 5493.388,4925.592 5493.264,4925.592ZM5495.341,4925.269L5495.927,4925.269L5493.516,4929.457L5492.929,4929.457L5495.341,4925.269ZM5494.718,4928.59C5494.718,4928.303 5494.803,4928.078 5494.973,4927.917C5495.142,4927.755 5495.353,4927.674 5495.604,4927.674C5495.855,4927.674 5496.066,4927.755 5496.235,4927.917C5496.405,4928.078 5496.49,4928.303 5496.49,4928.59C5496.49,4928.873 5496.405,4929.095 5496.235,4929.257C5496.066,4929.418 5495.855,4929.499 5495.604,4929.499C5495.353,4929.499 5495.142,4929.418 5494.973,4929.257C5494.803,4929.095 5494.718,4928.873 5494.718,4928.59ZM5495.604,4928.045C5495.476,4928.045 5495.375,4928.089 5495.299,4928.177C5495.223,4928.265 5495.185,4928.402 5495.185,4928.59C5495.185,4928.773 5495.223,4928.909 5495.299,4928.997C5495.375,4929.084 5495.476,4929.128 5495.604,4929.128C5495.724,4929.128 5495.822,4929.084 5495.9,4928.997C5495.978,4928.909 5496.017,4928.773 5496.017,4928.59C5496.017,4928.402 5495.978,4928.265 5495.9,4928.177C5495.822,4928.089 5495.724,4928.045 5495.604,4928.045Z" style="fill:rgb(112,0,132);fill-rule:nonzero;"/>
                    <path d="M5499.457,4926.974L5499.392,4926.992L5499.392,4925.149L5499.96,4925.149L5499.96,4929.457L5499.445,4929.457L5499.404,4929.009C5499.304,4929.144 5499.169,4929.26 5499,4929.356C5498.83,4929.451 5498.624,4929.499 5498.38,4929.499C5498.109,4929.499 5497.873,4929.435 5497.671,4929.308C5497.47,4929.18 5497.312,4929.001 5497.199,4928.769C5497.085,4928.538 5497.028,4928.269 5497.028,4927.961C5497.028,4927.654 5497.085,4927.385 5497.199,4927.154C5497.312,4926.922 5497.47,4926.743 5497.671,4926.615C5497.873,4926.488 5498.109,4926.424 5498.38,4926.424C5498.64,4926.424 5498.86,4926.477 5499.042,4926.582C5499.223,4926.688 5499.362,4926.819 5499.457,4926.974ZM5497.632,4927.961C5497.632,4928.269 5497.712,4928.516 5497.872,4928.703C5498.031,4928.891 5498.245,4928.985 5498.512,4928.985C5498.676,4928.985 5498.823,4928.945 5498.955,4928.865C5499.086,4928.785 5499.192,4928.669 5499.272,4928.515C5499.352,4928.361 5499.392,4928.177 5499.392,4927.961C5499.392,4927.746 5499.352,4927.563 5499.272,4927.411C5499.192,4927.259 5499.086,4927.143 5498.955,4927.061C5498.823,4926.979 5498.676,4926.938 5498.512,4926.938C5498.249,4926.938 5498.036,4927.032 5497.875,4927.22C5497.713,4927.407 5497.632,4927.654 5497.632,4927.961Z" style="fill:rgb(112,0,132);fill-rule:nonzero;"/>
                </g>
            </g>
        </g>
    </g>
</svg>
