<?xml version="1.0" encoding="UTF-8" standalone="no"?>
<!DOCTYPE svg PUBLIC "-//W3C//DTD SVG 1.1//EN" "http://www.w3.org/Graphics/SVG/1.1/DTD/svg11.dtd">
<svg width="100%" height="100%" viewBox="0 0 591 591" version="1.1" xmlns="http://www.w3.org/2000/svg" xmlns:xlink="http://www.w3.org/1999/xlink" xml:space="preserve" xmlns:affinity="https://www.affinity.studio/" style="fill-rule:evenodd;clip-rule:evenodd;stroke-linejoin:round;stroke-miterlimit:2;">
    <g id="Flexdate" transform="matrix(0.277523,0,0,0.277523,-51.618167,-880.978705)">
        <g>
            <g transform="matrix(1.15152,0,0,1.15152,-211.278422,2344.190294)">
                <path d="M1730.953,721C1985.929,721 2192.937,928.008 2192.937,1182.984L2192.937,2106.953C2192.937,2361.929 1985.929,2568.937 1730.953,2568.937L806.984,2568.937C552.008,2568.937 345,2361.929 345,2106.953L345,1182.984C345,928.008 552.008,721 806.984,721L1730.953,721Z" style="fill:rgb(240,173,78);"/>
            </g>
            <g id="Frontpage" transform="matrix(0,0.921528,-0.921528,0,2861.340746,3099.370998)">
                <g transform="matrix(7.726495,0,-0,1.297084,-7551.08879,102.749567)">
                    <g id="topr">
                        <path d="M1215.299,656C1229.019,656 1240.157,722.352 1240.157,804.08L1240.157,1741.92C1240.157,1823.648 1229.019,1890 1215.299,1890L1057.859,1890C1044.139,1890 1033,1823.648 1033,1741.92L1033,804.08C1033,722.352 1044.139,656 1057.859,656L1215.299,656Z" style="fill:rgb(165,165,165);"/>
                    </g>
                </g>
            </g>
            <g id="certificate" transform="matrix(21.37962,0,0,21.37962,-5416.434322,-2218.240159)">
                <path d="M338,275C338,276.656 336.656,278 335,278C333.344,278 332,276.656 332,275C332,273.344 333.344,272 335,272C336.656,272 338,273.344 338,275Z" style="fill:rgb(211,215,217);fill-rule:nonzero;"/>
                <rect x="292" y="276" width="40" height="52" style="fill:rgb(236,242,244);fill-rule:nonzero;"/>
                <path d="M335,272L296,272L296,276L332,276L332,275C332,274 333,272 335,272Z" style="fill:rgb(236,242,244);fill-rule:nonzero;"/>
                <rect x="289" y="326" width="40" height="6" style="fill:rgb(211,215,217);fill-rule:nonzero;"/>
                <path d="M292,329C292,330.657 290.657,332 289,332C287.343,332 286,330.657 286,329C286,327.343 287.343,326 289,326C290.657,326 292,327.343 292,329Z" style="fill:rgb(211,215,217);fill-rule:nonzero;"/>
                <path d="M332,329C332,330.656 330.656,332 329,332C327.344,332 326,330.656 326,329C326,327.344 327.344,326 329,326C330.656,326 332,327.344 332,329Z" style="fill:rgb(236,242,244);fill-rule:nonzero;"/>
                <rect x="332" y="275" width="3" height="3" style="fill:rgb(211,215,217);fill-rule:nonzero;"/>
                <path d="M300,276C300,278.209 298.209,280 296,280C293.791,280 292,278.209 292,276C292,273.791 293.791,272 296,272C298.209,272 300,273.791 300,276Z" style="fill:rgb(236,242,244);fill-rule:nonzero;"/>
                <rect x="298" y="292" width="28" height="2" style="fill:rgb(100,123,139);fill-rule:nonzero;"/>
                <rect x="304" y="280" width="16" height="2" style="fill:rgb(100,123,139);fill-rule:nonzero;"/>
                <rect x="308" y="284" width="8" height="2" style="fill:rgb(100,123,139);fill-rule:nonzero;"/>
                <rect x="298" y="296" width="28" height="2" style="fill:rgb(100,123,139);fill-rule:nonzero;"/>
                <rect x="298" y="300" width="28" height="2" style="fill:rgb(100,123,139);fill-rule:nonzero;"/>
                <rect x="298" y="304" width="14" height="2" style="fill:rgb(100,123,139);fill-rule:nonzero;"/>
                <rect x="298" y="308" width="14" height="2" style="fill:rgb(100,123,139);fill-rule:nonzero;"/>
                <path d="M322,320L320,318L318,320L318,312L322,312L322,320Z" style="fill:rgb(100,123,139);fill-rule:nonzero;"/>
                <path d="M320,304L321,306L324,305L323,308L326.09,308.021L324,310L326,312L323,312L324,315L321,314L320,316L319,314L316,315L317,312L314,312L316,310L314,308L317,308L316,305L319,306L320,304Z" style="fill:rgb(240,96,80);fill-rule:nonzero;"/>
                <path d="M323,310C323,311.656 321.656,313 320,313C318.344,313 317,311.656 317,310C317,308.344 318.344,307 320,307C321.656,307 323,308.344 323,310Z" style="fill:rgb(253,190,93);fill-rule:nonzero;"/>
            </g>
            <g transform="matrix(1.288957,0,0,1.288957,-3317.294926,1156.893716)">
                <g>
                    <g transform="matrix(255.851373,0,0,255.851373,3222.794818,3173.450907)">
                        <path d="M0.062,-0.7L0.57,-0.7L0.57,-0.571L0.216,-0.571L0.216,-0.416L0.481,-0.416L0.481,-0.294L0.216,-0.294L0.216,-0L0.062,-0L0.062,-0.7Z" style="fill:rgb(23,157,0);fill-rule:nonzero;"/>
                    </g>
                    <g transform="matrix(255.851373,0,0,255.851373,3375.538088,3173.450907)">
                        <path d="M0.464,-0.478C0.464,-0.507 0.456,-0.529 0.439,-0.546C0.421,-0.563 0.395,-0.571 0.359,-0.571L0.216,-0.571L0.216,-0.384L0.359,-0.384C0.383,-0.384 0.403,-0.388 0.418,-0.395C0.433,-0.402 0.445,-0.413 0.453,-0.427C0.46,-0.442 0.464,-0.459 0.464,-0.478ZM0.367,-0.7C0.424,-0.7 0.471,-0.69 0.509,-0.669C0.546,-0.649 0.574,-0.622 0.593,-0.589C0.612,-0.555 0.621,-0.518 0.621,-0.478C0.621,-0.451 0.616,-0.424 0.607,-0.398C0.597,-0.371 0.582,-0.347 0.561,-0.326C0.541,-0.304 0.515,-0.287 0.482,-0.274C0.45,-0.261 0.412,-0.255 0.367,-0.255L0.216,-0.255L0.216,-0L0.062,-0L0.062,-0.7L0.367,-0.7ZM0.448,-0.308L0.635,-0L0.464,-0L0.286,-0.308L0.448,-0.308Z" style="fill:rgb(23,157,0);fill-rule:nonzero;"/>
                    </g>
                    <g transform="matrix(255.851373,0,0,255.851373,3545.935102,3173.450907)">
                        <path d="M0.57,-0.571L0.216,-0.571L0.216,-0.416L0.481,-0.416L0.481,-0.294L0.216,-0.294L0.216,-0.129L0.57,-0.129L0.57,-0L0.062,-0L0.062,-0.7L0.57,-0.7L0.57,-0.571Z" style="fill:rgb(23,157,0);fill-rule:nonzero;"/>
                    </g>
                    <g transform="matrix(255.851373,0,0,255.851373,3702.260291,3173.450907)">
                        <path d="M0.57,-0.571L0.216,-0.571L0.216,-0.416L0.481,-0.416L0.481,-0.294L0.216,-0.294L0.216,-0.129L0.57,-0.129L0.57,-0L0.062,-0L0.062,-0.7L0.57,-0.7L0.57,-0.571Z" style="fill:rgb(23,157,0);fill-rule:nonzero;"/>
                    </g>
                </g>
            </g>
            <g transform="matrix(22.760772,0,0,22.760772,-123585.017071,-107530.290475)">
                <g>
                    <g>
                        <g transform="matrix(10.160199,0,0,10.160199,5457.046708,4896.9952)">
                            <path d="M0.048,-0.555C0.048,-0.603 0.062,-0.64 0.09,-0.667C0.118,-0.694 0.153,-0.707 0.196,-0.707C0.238,-0.707 0.273,-0.694 0.301,-0.667C0.33,-0.64 0.344,-0.603 0.344,-0.555C0.344,-0.507 0.33,-0.47 0.301,-0.443C0.273,-0.416 0.238,-0.402 0.196,-0.402C0.153,-0.402 0.118,-0.416 0.09,-0.443C0.062,-0.47 0.048,-0.507 0.048,-0.555ZM0.196,-0.646C0.175,-0.646 0.158,-0.639 0.145,-0.624C0.132,-0.609 0.126,-0.586 0.126,-0.555C0.126,-0.524 0.132,-0.501 0.145,-0.486C0.158,-0.471 0.175,-0.463 0.196,-0.463C0.217,-0.463 0.233,-0.471 0.246,-0.486C0.259,-0.501 0.265,-0.524 0.265,-0.555C0.265,-0.586 0.259,-0.609 0.246,-0.624C0.233,-0.639 0.217,-0.646 0.196,-0.646ZM0.543,-0.7L0.641,-0.7L0.238,-0L0.14,-0L0.543,-0.7ZM0.439,-0.145C0.439,-0.193 0.453,-0.231 0.481,-0.258C0.51,-0.284 0.545,-0.298 0.587,-0.298C0.629,-0.298 0.664,-0.284 0.693,-0.258C0.721,-0.231 0.735,-0.193 0.735,-0.145C0.735,-0.098 0.721,-0.06 0.693,-0.034C0.664,-0.007 0.629,0.007 0.587,0.007C0.545,0.007 0.51,-0.007 0.481,-0.034C0.453,-0.06 0.439,-0.098 0.439,-0.145ZM0.587,-0.236C0.566,-0.236 0.549,-0.229 0.536,-0.214C0.523,-0.199 0.517,-0.176 0.517,-0.145C0.517,-0.114 0.523,-0.092 0.536,-0.077C0.549,-0.062 0.566,-0.055 0.587,-0.055C0.607,-0.055 0.624,-0.062 0.637,-0.077C0.65,-0.092 0.656,-0.114 0.656,-0.145C0.656,-0.176 0.65,-0.199 0.637,-0.214C0.624,-0.229 0.607,-0.236 0.587,-0.236Z" style="fill:rgb(112,0,132);fill-rule:nonzero;"/>
                        </g>
                        <g transform="matrix(10.160199,0,0,10.160199,5464.991984,4896.9952)">
                            <path d="M0.449,-0.415L0.438,-0.412L0.438,-0.72L0.533,-0.72L0.533,-0L0.447,-0L0.44,-0.075C0.423,-0.052 0.401,-0.033 0.372,-0.017C0.344,-0.001 0.31,0.007 0.269,0.007C0.224,0.007 0.184,-0.004 0.15,-0.025C0.117,-0.046 0.091,-0.076 0.072,-0.115C0.053,-0.154 0.043,-0.199 0.043,-0.25C0.043,-0.301 0.053,-0.346 0.072,-0.385C0.091,-0.424 0.117,-0.454 0.15,-0.475C0.184,-0.496 0.224,-0.507 0.269,-0.507C0.312,-0.507 0.349,-0.498 0.38,-0.48C0.41,-0.463 0.433,-0.441 0.449,-0.415ZM0.144,-0.25C0.144,-0.199 0.157,-0.157 0.184,-0.126C0.211,-0.095 0.246,-0.079 0.291,-0.079C0.318,-0.079 0.343,-0.086 0.365,-0.099C0.387,-0.112 0.405,-0.132 0.418,-0.158C0.431,-0.183 0.438,-0.214 0.438,-0.25C0.438,-0.286 0.431,-0.317 0.418,-0.342C0.405,-0.367 0.387,-0.387 0.365,-0.401C0.343,-0.414 0.318,-0.421 0.291,-0.421C0.247,-0.421 0.212,-0.405 0.184,-0.374C0.158,-0.343 0.144,-0.301 0.144,-0.25Z" style="fill:rgb(112,0,132);fill-rule:nonzero;"/>
                        </g>
                        <g transform="matrix(10.160199,0,0,10.160199,5471.128745,4896.9952)">
                            <path d="M0.124,0.006C0.106,0.006 0.091,-0 0.078,-0.013C0.065,-0.026 0.059,-0.041 0.059,-0.059C0.059,-0.078 0.065,-0.093 0.078,-0.106C0.091,-0.119 0.106,-0.125 0.124,-0.125C0.142,-0.125 0.157,-0.119 0.17,-0.106C0.183,-0.093 0.189,-0.078 0.189,-0.059C0.189,-0.041 0.183,-0.026 0.17,-0.013C0.157,-0 0.142,0.006 0.124,0.006Z" style="fill:rgb(112,0,132);fill-rule:nonzero;"/>
                        </g>
                        <g transform="matrix(10.160199,0,0,10.160199,5473.648474,4896.9952)">
                            <path d="M0.048,-0.555C0.048,-0.603 0.062,-0.64 0.09,-0.667C0.118,-0.694 0.153,-0.707 0.196,-0.707C0.238,-0.707 0.273,-0.694 0.301,-0.667C0.33,-0.64 0.344,-0.603 0.344,-0.555C0.344,-0.507 0.33,-0.47 0.301,-0.443C0.273,-0.416 0.238,-0.402 0.196,-0.402C0.153,-0.402 0.118,-0.416 0.09,-0.443C0.062,-0.47 0.048,-0.507 0.048,-0.555ZM0.196,-0.646C0.175,-0.646 0.158,-0.639 0.145,-0.624C0.132,-0.609 0.126,-0.586 0.126,-0.555C0.126,-0.524 0.132,-0.501 0.145,-0.486C0.158,-0.471 0.175,-0.463 0.196,-0.463C0.217,-0.463 0.233,-0.471 0.246,-0.486C0.259,-0.501 0.265,-0.524 0.265,-0.555C0.265,-0.586 0.259,-0.609 0.246,-0.624C0.233,-0.639 0.217,-0.646 0.196,-0.646ZM0.543,-0.7L0.641,-0.7L0.238,-0L0.14,-0L0.543,-0.7ZM0.439,-0.145C0.439,-0.193 0.453,-0.231 0.481,-0.258C0.51,-0.284 0.545,-0.298 0.587,-0.298C0.629,-0.298 0.664,-0.284 0.693,-0.258C0.721,-0.231 0.735,-0.193 0.735,-0.145C0.735,-0.098 0.721,-0.06 0.693,-0.034C0.664,-0.007 0.629,0.007 0.587,0.007C0.545,0.007 0.51,-0.007 0.481,-0.034C0.453,-0.06 0.439,-0.098 0.439,-0.145ZM0.587,-0.236C0.566,-0.236 0.549,-0.229 0.536,-0.214C0.523,-0.199 0.517,-0.176 0.517,-0.145C0.517,-0.114 0.523,-0.092 0.536,-0.077C0.549,-0.062 0.566,-0.055 0.587,-0.055C0.607,-0.055 0.624,-0.062 0.637,-0.077C0.65,-0.092 0.656,-0.114 0.656,-0.145C0.656,-0.176 0.65,-0.199 0.637,-0.214C0.624,-0.229 0.607,-0.236 0.587,-0.236Z" style="fill:rgb(112,0,132);fill-rule:nonzero;"/>
                        </g>
                        <g transform="matrix(10.160199,0,0,10.160199,5481.59375,4896.9952)">
                            <path d="M0.072,-0.5L0.158,-0.5L0.164,-0.442C0.18,-0.462 0.2,-0.478 0.224,-0.489C0.248,-0.501 0.275,-0.507 0.305,-0.507C0.339,-0.507 0.37,-0.499 0.398,-0.484C0.425,-0.47 0.447,-0.447 0.463,-0.418C0.48,-0.447 0.503,-0.47 0.534,-0.484C0.565,-0.499 0.598,-0.507 0.635,-0.507C0.673,-0.507 0.707,-0.499 0.736,-0.482C0.764,-0.466 0.787,-0.442 0.803,-0.41C0.819,-0.378 0.827,-0.338 0.827,-0.29L0.827,-0L0.732,-0L0.732,-0.278C0.732,-0.325 0.722,-0.36 0.702,-0.385C0.682,-0.409 0.653,-0.421 0.616,-0.421C0.578,-0.421 0.548,-0.408 0.526,-0.383C0.504,-0.358 0.493,-0.321 0.493,-0.272L0.493,-0L0.398,-0L0.398,-0.278C0.398,-0.325 0.389,-0.36 0.37,-0.385C0.351,-0.409 0.323,-0.421 0.286,-0.421C0.248,-0.421 0.218,-0.408 0.198,-0.383C0.177,-0.358 0.166,-0.321 0.166,-0.272L0.166,-0L0.072,-0L0.072,-0.5Z" style="fill:rgb(112,0,132);fill-rule:nonzero;"/>
                        </g>
                        <g transform="matrix(10.160199,0,0,10.160199,5490.636328,4896.9952)">
                            <path d="M0.124,0.006C0.106,0.006 0.091,-0 0.078,-0.013C0.065,-0.026 0.059,-0.041 0.059,-0.059C0.059,-0.078 0.065,-0.093 0.078,-0.106C0.091,-0.119 0.106,-0.125 0.124,-0.125C0.142,-0.125 0.157,-0.119 0.17,-0.106C0.183,-0.093 0.189,-0.078 0.189,-0.059C0.189,-0.041 0.183,-0.026 0.17,-0.013C0.157,-0 0.142,0.006 0.124,0.006Z" style="fill:rgb(112,0,132);fill-rule:nonzero;"/>
                        </g>
                        <g transform="matrix(10.160199,0,0,10.160199,5493.156057,4896.9952)">
                            <path d="M0.048,-0.555C0.048,-0.603 0.062,-0.64 0.09,-0.667C0.118,-0.694 0.153,-0.707 0.196,-0.707C0.238,-0.707 0.273,-0.694 0.301,-0.667C0.33,-0.64 0.344,-0.603 0.344,-0.555C0.344,-0.507 0.33,-0.47 0.301,-0.443C0.273,-0.416 0.238,-0.402 0.196,-0.402C0.153,-0.402 0.118,-0.416 0.09,-0.443C0.062,-0.47 0.048,-0.507 0.048,-0.555ZM0.196,-0.646C0.175,-0.646 0.158,-0.639 0.145,-0.624C0.132,-0.609 0.126,-0.586 0.126,-0.555C0.126,-0.524 0.132,-0.501 0.145,-0.486C0.158,-0.471 0.175,-0.463 0.196,-0.463C0.217,-0.463 0.233,-0.471 0.246,-0.486C0.259,-0.501 0.265,-0.524 0.265,-0.555C0.265,-0.586 0.259,-0.609 0.246,-0.624C0.233,-0.639 0.217,-0.646 0.196,-0.646ZM0.543,-0.7L0.641,-0.7L0.238,-0L0.14,-0L0.543,-0.7ZM0.439,-0.145C0.439,-0.193 0.453,-0.231 0.481,-0.258C0.51,-0.284 0.545,-0.298 0.587,-0.298C0.629,-0.298 0.664,-0.284 0.693,-0.258C0.721,-0.231 0.735,-0.193 0.735,-0.145C0.735,-0.098 0.721,-0.06 0.693,-0.034C0.664,-0.007 0.629,0.007 0.587,0.007C0.545,0.007 0.51,-0.007 0.481,-0.034C0.453,-0.06 0.439,-0.098 0.439,-0.145ZM0.587,-0.236C0.566,-0.236 0.549,-0.229 0.536,-0.214C0.523,-0.199 0.517,-0.176 0.517,-0.145C0.517,-0.114 0.523,-0.092 0.536,-0.077C0.549,-0.062 0.566,-0.055 0.587,-0.055C0.607,-0.055 0.624,-0.062 0.637,-0.077C0.65,-0.092 0.656,-0.114 0.656,-0.145C0.656,-0.176 0.65,-0.199 0.637,-0.214C0.624,-0.229 0.607,-0.236 0.587,-0.236Z" style="fill:rgb(112,0,132);fill-rule:nonzero;"/>
                        </g>
                        <g transform="matrix(10.160199,0,0,10.160199,5501.101333,4896.9952)">
                            <path d="M0.532,-0.7L0.643,-0.7L0.384,-0.26L0.384,-0L0.285,-0L0.285,-0.259L0.026,-0.7L0.137,-0.7L0.334,-0.351L0.532,-0.7Z" style="fill:rgb(112,0,132);fill-rule:nonzero;"/>
                        </g>
                    </g>
                    <g>
                        <g transform="matrix(10.160199,0,0,10.160199,5457.046708,4913.226269)">
                            <path d="M0.048,-0.555C0.048,-0.603 0.062,-0.64 0.09,-0.667C0.118,-0.694 0.153,-0.707 0.196,-0.707C0.238,-0.707 0.273,-0.694 0.301,-0.667C0.33,-0.64 0.344,-0.603 0.344,-0.555C0.344,-0.507 0.33,-0.47 0.301,-0.443C0.273,-0.416 0.238,-0.402 0.196,-0.402C0.153,-0.402 0.118,-0.416 0.09,-0.443C0.062,-0.47 0.048,-0.507 0.048,-0.555ZM0.196,-0.646C0.175,-0.646 0.158,-0.639 0.145,-0.624C0.132,-0.609 0.126,-0.586 0.126,-0.555C0.126,-0.524 0.132,-0.501 0.145,-0.486C0.158,-0.471 0.175,-0.463 0.196,-0.463C0.217,-0.463 0.233,-0.471 0.246,-0.486C0.259,-0.501 0.265,-0.524 0.265,-0.555C0.265,-0.586 0.259,-0.609 0.246,-0.624C0.233,-0.639 0.217,-0.646 0.196,-0.646ZM0.543,-0.7L0.641,-0.7L0.238,-0L0.14,-0L0.543,-0.7ZM0.439,-0.145C0.439,-0.193 0.453,-0.231 0.481,-0.258C0.51,-0.284 0.545,-0.298 0.587,-0.298C0.629,-0.298 0.664,-0.284 0.693,-0.258C0.721,-0.231 0.735,-0.193 0.735,-0.145C0.735,-0.098 0.721,-0.06 0.693,-0.034C0.664,-0.007 0.629,0.007 0.587,0.007C0.545,0.007 0.51,-0.007 0.481,-0.034C0.453,-0.06 0.439,-0.098 0.439,-0.145ZM0.587,-0.236C0.566,-0.236 0.549,-0.229 0.536,-0.214C0.523,-0.199 0.517,-0.176 0.517,-0.145C0.517,-0.114 0.523,-0.092 0.536,-0.077C0.549,-0.062 0.566,-0.055 0.587,-0.055C0.607,-0.055 0.624,-0.062 0.637,-0.077C0.65,-0.092 0.656,-0.114 0.656,-0.145C0.656,-0.176 0.65,-0.199 0.637,-0.214C0.624,-0.229 0.607,-0.236 0.587,-0.236Z" style="fill:rgb(112,0,132);fill-rule:nonzero;"/>
                        </g>
                        <g transform="matrix(10.160199,0,0,10.160199,5464.991984,4913.226269)">
                            <path d="M0.449,-0.415L0.438,-0.412L0.438,-0.72L0.533,-0.72L0.533,-0L0.447,-0L0.44,-0.075C0.423,-0.052 0.401,-0.033 0.372,-0.017C0.344,-0.001 0.31,0.007 0.269,0.007C0.224,0.007 0.184,-0.004 0.15,-0.025C0.117,-0.046 0.091,-0.076 0.072,-0.115C0.053,-0.154 0.043,-0.199 0.043,-0.25C0.043,-0.301 0.053,-0.346 0.072,-0.385C0.091,-0.424 0.117,-0.454 0.15,-0.475C0.184,-0.496 0.224,-0.507 0.269,-0.507C0.312,-0.507 0.349,-0.498 0.38,-0.48C0.41,-0.463 0.433,-0.441 0.449,-0.415ZM0.144,-0.25C0.144,-0.199 0.157,-0.157 0.184,-0.126C0.211,-0.095 0.246,-0.079 0.291,-0.079C0.318,-0.079 0.343,-0.086 0.365,-0.099C0.387,-0.112 0.405,-0.132 0.418,-0.158C0.431,-0.183 0.438,-0.214 0.438,-0.25C0.438,-0.286 0.431,-0.317 0.418,-0.342C0.405,-0.367 0.387,-0.387 0.365,-0.401C0.343,-0.414 0.318,-0.421 0.291,-0.421C0.247,-0.421 0.212,-0.405 0.184,-0.374C0.158,-0.343 0.144,-0.301 0.144,-0.25Z" style="fill:rgb(112,0,132);fill-rule:nonzero;"/>
                        </g>
                        <g transform="matrix(10.160199,0,0,10.160199,5471.128745,4913.226269)">
                            <path d="M0.124,0.006C0.106,0.006 0.091,-0 0.078,-0.013C0.065,-0.026 0.059,-0.041 0.059,-0.059C0.059,-0.078 0.065,-0.093 0.078,-0.106C0.091,-0.119 0.106,-0.125 0.124,-0.125C0.142,-0.125 0.157,-0.119 0.17,-0.106C0.183,-0.093 0.189,-0.078 0.189,-0.059C0.189,-0.041 0.183,-0.026 0.17,-0.013C0.157,-0 0.142,0.006 0.124,0.006Z" style="fill:rgb(112,0,132);fill-rule:nonzero;"/>
                        </g>
                        <g transform="matrix(10.160199,0,0,10.160199,5476.49333,4913.226269)">
                            <path d="M0.048,-0.555C0.048,-0.603 0.062,-0.64 0.09,-0.667C0.118,-0.694 0.153,-0.707 0.196,-0.707C0.238,-0.707 0.273,-0.694 0.301,-0.667C0.33,-0.64 0.344,-0.603 0.344,-0.555C0.344,-0.507 0.33,-0.47 0.301,-0.443C0.273,-0.416 0.238,-0.402 0.196,-0.402C0.153,-0.402 0.118,-0.416 0.09,-0.443C0.062,-0.47 0.048,-0.507 0.048,-0.555ZM0.196,-0.646C0.175,-0.646 0.158,-0.639 0.145,-0.624C0.132,-0.609 0.126,-0.586 0.126,-0.555C0.126,-0.524 0.132,-0.501 0.145,-0.486C0.158,-0.471 0.175,-0.463 0.196,-0.463C0.217,-0.463 0.233,-0.471 0.246,-0.486C0.259,-0.501 0.265,-0.524 0.265,-0.555C0.265,-0.586 0.259,-0.609 0.246,-0.624C0.233,-0.639 0.217,-0.646 0.196,-0.646ZM0.543,-0.7L0.641,-0.7L0.238,-0L0.14,-0L0.543,-0.7ZM0.439,-0.145C0.439,-0.193 0.453,-0.231 0.481,-0.258C0.51,-0.284 0.545,-0.298 0.587,-0.298C0.629,-0.298 0.664,-0.284 0.693,-0.258C0.721,-0.231 0.735,-0.193 0.735,-0.145C0.735,-0.098 0.721,-0.06 0.693,-0.034C0.664,-0.007 0.629,0.007 0.587,0.007C0.545,0.007 0.51,-0.007 0.481,-0.034C0.453,-0.06 0.439,-0.098 0.439,-0.145ZM0.587,-0.236C0.566,-0.236 0.549,-0.229 0.536,-0.214C0.523,-0.199 0.517,-0.176 0.517,-0.145C0.517,-0.114 0.523,-0.092 0.536,-0.077C0.549,-0.062 0.566,-0.055 0.587,-0.055C0.607,-0.055 0.624,-0.062 0.637,-0.077C0.65,-0.092 0.656,-0.114 0.656,-0.145C0.656,-0.176 0.65,-0.199 0.637,-0.214C0.624,-0.229 0.607,-0.236 0.587,-0.236Z" style="fill:rgb(112,0,132);fill-rule:nonzero;"/>
                        </g>
                        <g transform="matrix(10.160199,0,0,10.160199,5484.438606,4913.226269)">
                            <path d="M0.497,-0.506C0.497,-0.54 0.486,-0.567 0.464,-0.587C0.441,-0.606 0.409,-0.616 0.367,-0.616L0.179,-0.616L0.179,-0.397L0.368,-0.397C0.409,-0.397 0.44,-0.407 0.463,-0.426C0.486,-0.445 0.497,-0.472 0.497,-0.506ZM0.079,-0L0.079,-0.7L0.376,-0.7C0.425,-0.7 0.466,-0.692 0.499,-0.675C0.532,-0.658 0.556,-0.636 0.573,-0.609C0.589,-0.582 0.597,-0.551 0.597,-0.518C0.597,-0.487 0.591,-0.46 0.58,-0.439C0.568,-0.418 0.553,-0.401 0.533,-0.388C0.514,-0.375 0.493,-0.366 0.469,-0.361L0.469,-0.354C0.498,-0.35 0.523,-0.342 0.544,-0.329C0.566,-0.316 0.583,-0.297 0.596,-0.274C0.608,-0.251 0.614,-0.222 0.614,-0.187C0.614,-0.152 0.605,-0.121 0.587,-0.092C0.569,-0.063 0.543,-0.041 0.51,-0.025C0.476,-0.008 0.435,-0 0.387,-0L0.079,-0ZM0.179,-0.084L0.378,-0.084C0.421,-0.084 0.454,-0.094 0.479,-0.114C0.503,-0.133 0.515,-0.161 0.515,-0.198C0.515,-0.235 0.502,-0.264 0.477,-0.284C0.451,-0.303 0.417,-0.313 0.375,-0.313L0.179,-0.313L0.179,-0.084Z" style="fill:rgb(112,0,132);fill-rule:nonzero;"/>
                        </g>
                        <g transform="matrix(10.160199,0,0,10.160199,5491.205299,4913.226269)">
                            <path d="M0.124,0.006C0.106,0.006 0.091,-0 0.078,-0.013C0.065,-0.026 0.059,-0.041 0.059,-0.059C0.059,-0.078 0.065,-0.093 0.078,-0.106C0.091,-0.119 0.106,-0.125 0.124,-0.125C0.142,-0.125 0.157,-0.119 0.17,-0.106C0.183,-0.093 0.189,-0.078 0.189,-0.059C0.189,-0.041 0.183,-0.026 0.17,-0.013C0.157,-0 0.142,0.006 0.124,0.006Z" style="fill:rgb(112,0,132);fill-rule:nonzero;"/>
                        </g>
                        <g transform="matrix(10.160199,0,0,10.160199,5496.569884,4913.226269)">
                            <path d="M0.048,-0.555C0.048,-0.603 0.062,-0.64 0.09,-0.667C0.118,-0.694 0.153,-0.707 0.196,-0.707C0.238,-0.707 0.273,-0.694 0.301,-0.667C0.33,-0.64 0.344,-0.603 0.344,-0.555C0.344,-0.507 0.33,-0.47 0.301,-0.443C0.273,-0.416 0.238,-0.402 0.196,-0.402C0.153,-0.402 0.118,-0.416 0.09,-0.443C0.062,-0.47 0.048,-0.507 0.048,-0.555ZM0.196,-0.646C0.175,-0.646 0.158,-0.639 0.145,-0.624C0.132,-0.609 0.126,-0.586 0.126,-0.555C0.126,-0.524 0.132,-0.501 0.145,-0.486C0.158,-0.471 0.175,-0.463 0.196,-0.463C0.217,-0.463 0.233,-0.471 0.246,-0.486C0.259,-0.501 0.265,-0.524 0.265,-0.555C0.265,-0.586 0.259,-0.609 0.246,-0.624C0.233,-0.639 0.217,-0.646 0.196,-0.646ZM0.543,-0.7L0.641,-0.7L0.238,-0L0.14,-0L0.543,-0.7ZM0.439,-0.145C0.439,-0.193 0.453,-0.231 0.481,-0.258C0.51,-0.284 0.545,-0.298 0.587,-0.298C0.629,-0.298 0.664,-0.284 0.693,-0.258C0.721,-0.231 0.735,-0.193 0.735,-0.145C0.735,-0.098 0.721,-0.06 0.693,-0.034C0.664,-0.007 0.629,0.007 0.587,0.007C0.545,0.007 0.51,-0.007 0.481,-0.034C0.453,-0.06 0.439,-0.098 0.439,-0.145ZM0.587,-0.236C0.566,-0.236 0.549,-0.229 0.536,-0.214C0.523,-0.199 0.517,-0.176 0.517,-0.145C0.517,-0.114 0.523,-0.092 0.536,-0.077C0.549,-0.062 0.566,-0.055 0.587,-0.055C0.607,-0.055 0.624,-0.062 0.637,-0.077C0.65,-0.092 0.656,-0.114 0.656,-0.145C0.656,-0.176 0.65,-0.199 0.637,-0.214C0.624,-0.229 0.607,-0.236 0.587,-0.236Z" style="fill:rgb(112,0,132);fill-rule:nonzero;"/>
                        </g>
                        <g transform="matrix(10.160199,0,0,10.160199,5504.51516,4913.226269)">
                            <path d="M0.532,-0.7L0.643,-0.7L0.384,-0.26L0.384,-0L0.285,-0L0.285,-0.259L0.026,-0.7L0.137,-0.7L0.334,-0.351L0.532,-0.7Z" style="fill:rgb(112,0,132);fill-rule:nonzero;"/>
                        </g>
                    </g>
                    <g>
                        <g transform="matrix(10.160199,0,0,10.160199,5457.046708,4929.457338)">
                            <path d="M0.048,-0.555C0.048,-0.603 0.062,-0.64 0.09,-0.667C0.118,-0.694 0.153,-0.707 0.196,-0.707C0.238,-0.707 0.273,-0.694 0.301,-0.667C0.33,-0.64 0.344,-0.603 0.344,-0.555C0.344,-0.507 0.33,-0.47 0.301,-0.443C0.273,-0.416 0.238,-0.402 0.196,-0.402C0.153,-0.402 0.118,-0.416 0.09,-0.443C0.062,-0.47 0.048,-0.507 0.048,-0.555ZM0.196,-0.646C0.175,-0.646 0.158,-0.639 0.145,-0.624C0.132,-0.609 0.126,-0.586 0.126,-0.555C0.126,-0.524 0.132,-0.501 0.145,-0.486C0.158,-0.471 0.175,-0.463 0.196,-0.463C0.217,-0.463 0.233,-0.471 0.246,-0.486C0.259,-0.501 0.265,-0.524 0.265,-0.555C0.265,-0.586 0.259,-0.609 0.246,-0.624C0.233,-0.639 0.217,-0.646 0.196,-0.646ZM0.543,-0.7L0.641,-0.7L0.238,-0L0.14,-0L0.543,-0.7ZM0.439,-0.145C0.439,-0.193 0.453,-0.231 0.481,-0.258C0.51,-0.284 0.545,-0.298 0.587,-0.298C0.629,-0.298 0.664,-0.284 0.693,-0.258C0.721,-0.231 0.735,-0.193 0.735,-0.145C0.735,-0.098 0.721,-0.06 0.693,-0.034C0.664,-0.007 0.629,0.007 0.587,0.007C0.545,0.007 0.51,-0.007 0.481,-0.034C0.453,-0.06 0.439,-0.098 0.439,-0.145ZM0.587,-0.236C0.566,-0.236 0.549,-0.229 0.536,-0.214C0.523,-0.199 0.517,-0.176 0.517,-0.145C0.517,-0.114 0.523,-0.092 0.536,-0.077C0.549,-0.062 0.566,-0.055 0.587,-0.055C0.607,-0.055 0.624,-0.062 0.637,-0.077C0.65,-0.092 0.656,-0.114 0.656,-0.145C0.656,-0.176 0.65,-0.199 0.637,-0.214C0.624,-0.229 0.607,-0.236 0.587,-0.236Z" style="fill:rgb(112,0,132);fill-rule:nonzero;"/>
                        </g>
                        <g transform="matrix(10.160199,0,0,10.160199,5464.991984,4929.457338)">
                            <path d="M0.413,-0.5L0.511,-0.5L0.221,0.2L0.128,0.2L0.216,-0.01L0.018,-0.5L0.122,-0.5L0.267,-0.121L0.413,-0.5Z" style="fill:rgb(112,0,132);fill-rule:nonzero;"/>
                        </g>
                        <g transform="matrix(10.160199,0,0,10.160199,5470.36673,4929.457338)">
                            <rect x="0.059" y="-0.32" width="0.404" height="0.084" style="fill:rgb(112,0,132);fill-rule:nonzero;"/>
                        </g>
                        <g transform="matrix(10.160199,0,0,10.160199,5475.680514,4929.457338)">
                            <path d="M0.048,-0.555C0.048,-0.603 0.062,-0.64 0.09,-0.667C0.118,-0.694 0.153,-0.707 0.196,-0.707C0.238,-0.707 0.273,-0.694 0.301,-0.667C0.33,-0.64 0.344,-0.603 0.344,-0.555C0.344,-0.507 0.33,-0.47 0.301,-0.443C0.273,-0.416 0.238,-0.402 0.196,-0.402C0.153,-0.402 0.118,-0.416 0.09,-0.443C0.062,-0.47 0.048,-0.507 0.048,-0.555ZM0.196,-0.646C0.175,-0.646 0.158,-0.639 0.145,-0.624C0.132,-0.609 0.126,-0.586 0.126,-0.555C0.126,-0.524 0.132,-0.501 0.145,-0.486C0.158,-0.471 0.175,-0.463 0.196,-0.463C0.217,-0.463 0.233,-0.471 0.246,-0.486C0.259,-0.501 0.265,-0.524 0.265,-0.555C0.265,-0.586 0.259,-0.609 0.246,-0.624C0.233,-0.639 0.217,-0.646 0.196,-0.646ZM0.543,-0.7L0.641,-0.7L0.238,-0L0.14,-0L0.543,-0.7ZM0.439,-0.145C0.439,-0.193 0.453,-0.231 0.481,-0.258C0.51,-0.284 0.545,-0.298 0.587,-0.298C0.629,-0.298 0.664,-0.284 0.693,-0.258C0.721,-0.231 0.735,-0.193 0.735,-0.145C0.735,-0.098 0.721,-0.06 0.693,-0.034C0.664,-0.007 0.629,0.007 0.587,0.007C0.545,0.007 0.51,-0.007 0.481,-0.034C0.453,-0.06 0.439,-0.098 0.439,-0.145ZM0.587,-0.236C0.566,-0.236 0.549,-0.229 0.536,-0.214C0.523,-0.199 0.517,-0.176 0.517,-0.145C0.517,-0.114 0.523,-0.092 0.536,-0.077C0.549,-0.062 0.566,-0.055 0.587,-0.055C0.607,-0.055 0.624,-0.062 0.637,-0.077C0.65,-0.092 0.656,-0.114 0.656,-0.145C0.656,-0.176 0.65,-0.199 0.637,-0.214C0.624,-0.229 0.607,-0.236 0.587,-0.236Z" style="fill:rgb(112,0,132);fill-rule:nonzero;"/>
                        </g>
                        <g transform="matrix(10.160199,0,0,10.160199,5483.62579,4929.457338)">
                            <path d="M0.072,-0.5L0.158,-0.5L0.164,-0.442C0.18,-0.462 0.2,-0.478 0.224,-0.489C0.248,-0.501 0.275,-0.507 0.305,-0.507C0.339,-0.507 0.37,-0.499 0.398,-0.484C0.425,-0.47 0.447,-0.447 0.463,-0.418C0.48,-0.447 0.503,-0.47 0.534,-0.484C0.565,-0.499 0.598,-0.507 0.635,-0.507C0.673,-0.507 0.707,-0.499 0.736,-0.482C0.764,-0.466 0.787,-0.442 0.803,-0.41C0.819,-0.378 0.827,-0.338 0.827,-0.29L0.827,-0L0.732,-0L0.732,-0.278C0.732,-0.325 0.722,-0.36 0.702,-0.385C0.682,-0.409 0.653,-0.421 0.616,-0.421C0.578,-0.421 0.548,-0.408 0.526,-0.383C0.504,-0.358 0.493,-0.321 0.493,-0.272L0.493,-0L0.398,-0L0.398,-0.278C0.398,-0.325 0.389,-0.36 0.37,-0.385C0.351,-0.409 0.323,-0.421 0.286,-0.421C0.248,-0.421 0.218,-0.408 0.198,-0.383C0.177,-0.358 0.166,-0.321 0.166,-0.272L0.166,-0L0.072,-0L0.072,-0.5Z" style="fill:rgb(112,0,132);fill-rule:nonzero;"/>
                        </g>
                        <g transform="matrix(10.160199,0,0,10.160199,5492.668368,4929.457338)">
                            <rect x="0.059" y="-0.32" width="0.404" height="0.084" style="fill:rgb(112,0,132);fill-rule:nonzero;"/>
                        </g>
                        <g transform="matrix(10.160199,0,0,10.160199,5497.982152,4929.457338)">
                            <path d="M0.048,-0.555C0.048,-0.603 0.062,-0.64 0.09,-0.667C0.118,-0.694 0.153,-0.707 0.196,-0.707C0.238,-0.707 0.273,-0.694 0.301,-0.667C0.33,-0.64 0.344,-0.603 0.344,-0.555C0.344,-0.507 0.33,-0.47 0.301,-0.443C0.273,-0.416 0.238,-0.402 0.196,-0.402C0.153,-0.402 0.118,-0.416 0.09,-0.443C0.062,-0.47 0.048,-0.507 0.048,-0.555ZM0.196,-0.646C0.175,-0.646 0.158,-0.639 0.145,-0.624C0.132,-0.609 0.126,-0.586 0.126,-0.555C0.126,-0.524 0.132,-0.501 0.145,-0.486C0.158,-0.471 0.175,-0.463 0.196,-0.463C0.217,-0.463 0.233,-0.471 0.246,-0.486C0.259,-0.501 0.265,-0.524 0.265,-0.555C0.265,-0.586 0.259,-0.609 0.246,-0.624C0.233,-0.639 0.217,-0.646 0.196,-0.646ZM0.543,-0.7L0.641,-0.7L0.238,-0L0.14,-0L0.543,-0.7ZM0.439,-0.145C0.439,-0.193 0.453,-0.231 0.481,-0.258C0.51,-0.284 0.545,-0.298 0.587,-0.298C0.629,-0.298 0.664,-0.284 0.693,-0.258C0.721,-0.231 0.735,-0.193 0.735,-0.145C0.735,-0.098 0.721,-0.06 0.693,-0.034C0.664,-0.007 0.629,0.007 0.587,0.007C0.545,0.007 0.51,-0.007 0.481,-0.034C0.453,-0.06 0.439,-0.098 0.439,-0.145ZM0.587,-0.236C0.566,-0.236 0.549,-0.229 0.536,-0.214C0.523,-0.199 0.517,-0.176 0.517,-0.145C0.517,-0.114 0.523,-0.092 0.536,-0.077C0.549,-0.062 0.566,-0.055 0.587,-0.055C0.607,-0.055 0.624,-0.062 0.637,-0.077C0.65,-0.092 0.656,-0.114 0.656,-0.145C0.656,-0.176 0.65,-0.199 0.637,-0.214C0.624,-0.229 0.607,-0.236 0.587,-0.236Z" style="fill:rgb(112,0,132);fill-rule:nonzero;"/>
                        </g>
                        <g transform="matrix(10.160199,0,0,10.160199,5505.927428,4929.457338)">
                            <path d="M0.449,-0.415L0.438,-0.412L0.438,-0.72L0.533,-0.72L0.533,-0L0.447,-0L0.44,-0.075C0.423,-0.052 0.401,-0.033 0.372,-0.017C0.344,-0.001 0.31,0.007 0.269,0.007C0.224,0.007 0.184,-0.004 0.15,-0.025C0.117,-0.046 0.091,-0.076 0.072,-0.115C0.053,-0.154 0.043,-0.199 0.043,-0.25C0.043,-0.301 0.053,-0.346 0.072,-0.385C0.091,-0.424 0.117,-0.454 0.15,-0.475C0.184,-0.496 0.224,-0.507 0.269,-0.507C0.312,-0.507 0.349,-0.498 0.38,-0.48C0.41,-0.463 0.433,-0.441 0.449,-0.415ZM0.144,-0.25C0.144,-0.199 0.157,-0.157 0.184,-0.126C0.211,-0.095 0.246,-0.079 0.291,-0.079C0.318,-0.079 0.343,-0.086 0.365,-0.099C0.387,-0.112 0.405,-0.132 0.418,-0.158C0.431,-0.183 0.438,-0.214 0.438,-0.25C0.438,-0.286 0.431,-0.317 0.418,-0.342C0.405,-0.367 0.387,-0.387 0.365,-0.401C0.343,-0.414 0.318,-0.421 0.291,-0.421C0.247,-0.421 0.212,-0.405 0.184,-0.374C0.158,-0.343 0.144,-0.301 0.144,-0.25Z" style="fill:rgb(112,0,132);fill-rule:nonzero;"/>
                        </g>
                    </g>
                </g>
            </g>
        </g>
        <g transform="matrix(22.760772,0,0,22.760772,-123585.017071,-107530.290475)">
            <g>
                <g transform="matrix(10.160199,0,0,10.160199,5457.046708,4896.9952)">
                    <path d="M0.048,-0.555C0.048,-0.603 0.062,-0.64 0.09,-0.667C0.118,-0.694 0.153,-0.707 0.196,-0.707C0.238,-0.707 0.273,-0.694 0.301,-0.667C0.33,-0.64 0.344,-0.603 0.344,-0.555C0.344,-0.507 0.33,-0.47 0.301,-0.443C0.273,-0.416 0.238,-0.402 0.196,-0.402C0.153,-0.402 0.118,-0.416 0.09,-0.443C0.062,-0.47 0.048,-0.507 0.048,-0.555ZM0.196,-0.646C0.175,-0.646 0.158,-0.639 0.145,-0.624C0.132,-0.609 0.126,-0.586 0.126,-0.555C0.126,-0.524 0.132,-0.501 0.145,-0.486C0.158,-0.471 0.175,-0.463 0.196,-0.463C0.217,-0.463 0.233,-0.471 0.246,-0.486C0.259,-0.501 0.265,-0.524 0.265,-0.555C0.265,-0.586 0.259,-0.609 0.246,-0.624C0.233,-0.639 0.217,-0.646 0.196,-0.646ZM0.543,-0.7L0.641,-0.7L0.238,-0L0.14,-0L0.543,-0.7ZM0.439,-0.145C0.439,-0.193 0.453,-0.231 0.481,-0.258C0.51,-0.284 0.545,-0.298 0.587,-0.298C0.629,-0.298 0.664,-0.284 0.693,-0.258C0.721,-0.231 0.735,-0.193 0.735,-0.145C0.735,-0.098 0.721,-0.06 0.693,-0.034C0.664,-0.007 0.629,0.007 0.587,0.007C0.545,0.007 0.51,-0.007 0.481,-0.034C0.453,-0.06 0.439,-0.098 0.439,-0.145ZM0.587,-0.236C0.566,-0.236 0.549,-0.229 0.536,-0.214C0.523,-0.199 0.517,-0.176 0.517,-0.145C0.517,-0.114 0.523,-0.092 0.536,-0.077C0.549,-0.062 0.566,-0.055 0.587,-0.055C0.607,-0.055 0.624,-0.062 0.637,-0.077C0.65,-0.092 0.656,-0.114 0.656,-0.145C0.656,-0.176 0.65,-0.199 0.637,-0.214C0.624,-0.229 0.607,-0.236 0.587,-0.236Z" style="fill:rgb(112,0,132);fill-rule:nonzero;"/>
                </g>
                <g transform="matrix(10.160199,0,0,10.160199,5464.991984,4896.9952)">
                    <path d="M0.449,-0.415L0.438,-0.412L0.438,-0.72L0.533,-0.72L0.533,-0L0.447,-0L0.44,-0.075C0.423,-0.052 0.401,-0.033 0.372,-0.017C0.344,-0.001 0.31,0.007 0.269,0.007C0.224,0.007 0.184,-0.004 0.15,-0.025C0.117,-0.046 0.091,-0.076 0.072,-0.115C0.053,-0.154 0.043,-0.199 0.043,-0.25C0.043,-0.301 0.053,-0.346 0.072,-0.385C0.091,-0.424 0.117,-0.454 0.15,-0.475C0.184,-0.496 0.224,-0.507 0.269,-0.507C0.312,-0.507 0.349,-0.498 0.38,-0.48C0.41,-0.463 0.433,-0.441 0.449,-0.415ZM0.144,-0.25C0.144,-0.199 0.157,-0.157 0.184,-0.126C0.211,-0.095 0.246,-0.079 0.291,-0.079C0.318,-0.079 0.343,-0.086 0.365,-0.099C0.387,-0.112 0.405,-0.132 0.418,-0.158C0.431,-0.183 0.438,-0.214 0.438,-0.25C0.438,-0.286 0.431,-0.317 0.418,-0.342C0.405,-0.367 0.387,-0.387 0.365,-0.401C0.343,-0.414 0.318,-0.421 0.291,-0.421C0.247,-0.421 0.212,-0.405 0.184,-0.374C0.158,-0.343 0.144,-0.301 0.144,-0.25Z" style="fill:rgb(112,0,132);fill-rule:nonzero;"/>
                </g>
                <g transform="matrix(10.160199,0,0,10.160199,5471.128745,4896.9952)">
                    <path d="M0.124,0.006C0.106,0.006 0.091,-0 0.078,-0.013C0.065,-0.026 0.059,-0.041 0.059,-0.059C0.059,-0.078 0.065,-0.093 0.078,-0.106C0.091,-0.119 0.106,-0.125 0.124,-0.125C0.142,-0.125 0.157,-0.119 0.17,-0.106C0.183,-0.093 0.189,-0.078 0.189,-0.059C0.189,-0.041 0.183,-0.026 0.17,-0.013C0.157,-0 0.142,0.006 0.124,0.006Z" style="fill:rgb(112,0,132);fill-rule:nonzero;"/>
                </g>
                <g transform="matrix(10.160199,0,0,10.160199,5473.648474,4896.9952)">
                    <path d="M0.048,-0.555C0.048,-0.603 0.062,-0.64 0.09,-0.667C0.118,-0.694 0.153,-0.707 0.196,-0.707C0.238,-0.707 0.273,-0.694 0.301,-0.667C0.33,-0.64 0.344,-0.603 0.344,-0.555C0.344,-0.507 0.33,-0.47 0.301,-0.443C0.273,-0.416 0.238,-0.402 0.196,-0.402C0.153,-0.402 0.118,-0.416 0.09,-0.443C0.062,-0.47 0.048,-0.507 0.048,-0.555ZM0.196,-0.646C0.175,-0.646 0.158,-0.639 0.145,-0.624C0.132,-0.609 0.126,-0.586 0.126,-0.555C0.126,-0.524 0.132,-0.501 0.145,-0.486C0.158,-0.471 0.175,-0.463 0.196,-0.463C0.217,-0.463 0.233,-0.471 0.246,-0.486C0.259,-0.501 0.265,-0.524 0.265,-0.555C0.265,-0.586 0.259,-0.609 0.246,-0.624C0.233,-0.639 0.217,-0.646 0.196,-0.646ZM0.543,-0.7L0.641,-0.7L0.238,-0L0.14,-0L0.543,-0.7ZM0.439,-0.145C0.439,-0.193 0.453,-0.231 0.481,-0.258C0.51,-0.284 0.545,-0.298 0.587,-0.298C0.629,-0.298 0.664,-0.284 0.693,-0.258C0.721,-0.231 0.735,-0.193 0.735,-0.145C0.735,-0.098 0.721,-0.06 0.693,-0.034C0.664,-0.007 0.629,0.007 0.587,0.007C0.545,0.007 0.51,-0.007 0.481,-0.034C0.453,-0.06 0.439,-0.098 0.439,-0.145ZM0.587,-0.236C0.566,-0.236 0.549,-0.229 0.536,-0.214C0.523,-0.199 0.517,-0.176 0.517,-0.145C0.517,-0.114 0.523,-0.092 0.536,-0.077C0.549,-0.062 0.566,-0.055 0.587,-0.055C0.607,-0.055 0.624,-0.062 0.637,-0.077C0.65,-0.092 0.656,-0.114 0.656,-0.145C0.656,-0.176 0.65,-0.199 0.637,-0.214C0.624,-0.229 0.607,-0.236 0.587,-0.236Z" style="fill:rgb(112,0,132);fill-rule:nonzero;"/>
                </g>
                <g transform="matrix(10.160199,0,0,10.160199,5481.59375,4896.9952)">
                    <path d="M0.072,-0.5L0.158,-0.5L0.164,-0.442C0.18,-0.462 0.2,-0.478 0.224,-0.489C0.248,-0.501 0.275,-0.507 0.305,-0.507C0.339,-0.507 0.37,-0.499 0.398,-0.484C0.425,-0.47 0.447,-0.447 0.463,-0.418C0.48,-0.447 0.503,-0.47 0.534,-0.484C0.565,-0.499 0.598,-0.507 0.635,-0.507C0.673,-0.507 0.707,-0.499 0.736,-0.482C0.764,-0.466 0.787,-0.442 0.803,-0.41C0.819,-0.378 0.827,-0.338 0.827,-0.29L0.827,-0L0.732,-0L0.732,-0.278C0.732,-0.325 0.722,-0.36 0.702,-0.385C0.682,-0.409 0.653,-0.421 0.616,-0.421C0.578,-0.421 0.548,-0.408 0.526,-0.383C0.504,-0.358 0.493,-0.321 0.493,-0.272L0.493,-0L0.398,-0L0.398,-0.278C0.398,-0.325 0.389,-0.36 0.37,-0.385C0.351,-0.409 0.323,-0.421 0.286,-0.421C0.248,-0.421 0.218,-0.408 0.198,-0.383C0.177,-0.358 0.166,-0.321 0.166,-0.272L0.166,-0L0.072,-0L0.072,-0.5Z" style="fill:rgb(112,0,132);fill-rule:nonzero;"/>
                </g>
                <g transform="matrix(10.160199,0,0,10.160199,5490.636328,4896.9952)">
                    <path d="M0.124,0.006C0.106,0.006 0.091,-0 0.078,-0.013C0.065,-0.026 0.059,-0.041 0.059,-0.059C0.059,-0.078 0.065,-0.093 0.078,-0.106C0.091,-0.119 0.106,-0.125 0.124,-0.125C0.142,-0.125 0.157,-0.119 0.17,-0.106C0.183,-0.093 0.189,-0.078 0.189,-0.059C0.189,-0.041 0.183,-0.026 0.17,-0.013C0.157,-0 0.142,0.006 0.124,0.006Z" style="fill:rgb(112,0,132);fill-rule:nonzero;"/>
                </g>
                <g transform="matrix(10.160199,0,0,10.160199,5493.156057,4896.9952)">
                    <path d="M0.048,-0.555C0.048,-0.603 0.062,-0.64 0.09,-0.667C0.118,-0.694 0.153,-0.707 0.196,-0.707C0.238,-0.707 0.273,-0.694 0.301,-0.667C0.33,-0.64 0.344,-0.603 0.344,-0.555C0.344,-0.507 0.33,-0.47 0.301,-0.443C0.273,-0.416 0.238,-0.402 0.196,-0.402C0.153,-0.402 0.118,-0.416 0.09,-0.443C0.062,-0.47 0.048,-0.507 0.048,-0.555ZM0.196,-0.646C0.175,-0.646 0.158,-0.639 0.145,-0.624C0.132,-0.609 0.126,-0.586 0.126,-0.555C0.126,-0.524 0.132,-0.501 0.145,-0.486C0.158,-0.471 0.175,-0.463 0.196,-0.463C0.217,-0.463 0.233,-0.471 0.246,-0.486C0.259,-0.501 0.265,-0.524 0.265,-0.555C0.265,-0.586 0.259,-0.609 0.246,-0.624C0.233,-0.639 0.217,-0.646 0.196,-0.646ZM0.543,-0.7L0.641,-0.7L0.238,-0L0.14,-0L0.543,-0.7ZM0.439,-0.145C0.439,-0.193 0.453,-0.231 0.481,-0.258C0.51,-0.284 0.545,-0.298 0.587,-0.298C0.629,-0.298 0.664,-0.284 0.693,-0.258C0.721,-0.231 0.735,-0.193 0.735,-0.145C0.735,-0.098 0.721,-0.06 0.693,-0.034C0.664,-0.007 0.629,0.007 0.587,0.007C0.545,0.007 0.51,-0.007 0.481,-0.034C0.453,-0.06 0.439,-0.098 0.439,-0.145ZM0.587,-0.236C0.566,-0.236 0.549,-0.229 0.536,-0.214C0.523,-0.199 0.517,-0.176 0.517,-0.145C0.517,-0.114 0.523,-0.092 0.536,-0.077C0.549,-0.062 0.566,-0.055 0.587,-0.055C0.607,-0.055 0.624,-0.062 0.637,-0.077C0.65,-0.092 0.656,-0.114 0.656,-0.145C0.656,-0.176 0.65,-0.199 0.637,-0.214C0.624,-0.229 0.607,-0.236 0.587,-0.236Z" style="fill:rgb(112,0,132);fill-rule:nonzero;"/>
                </g>
                <g transform="matrix(10.160199,0,0,10.160199,5501.101333,4896.9952)">
                    <path d="M0.532,-0.7L0.643,-0.7L0.384,-0.26L0.384,-0L0.285,-0L0.285,-0.259L0.026,-0.7L0.137,-0.7L0.334,-0.351L0.532,-0.7Z" style="fill:rgb(112,0,132);fill-rule:nonzero;"/>
                </g>
            </g>
            <g>
                <g transform="matrix(10.160199,0,0,10.160199,5457.046708,4913.226269)">
                    <path d="M0.048,-0.555C0.048,-0.603 0.062,-0.64 0.09,-0.667C0.118,-0.694 0.153,-0.707 0.196,-0.707C0.238,-0.707 0.273,-0.694 0.301,-0.667C0.33,-0.64 0.344,-0.603 0.344,-0.555C0.344,-0.507 0.33,-0.47 0.301,-0.443C0.273,-0.416 0.238,-0.402 0.196,-0.402C0.153,-0.402 0.118,-0.416 0.09,-0.443C0.062,-0.47 0.048,-0.507 0.048,-0.555ZM0.196,-0.646C0.175,-0.646 0.158,-0.639 0.145,-0.624C0.132,-0.609 0.126,-0.586 0.126,-0.555C0.126,-0.524 0.132,-0.501 0.145,-0.486C0.158,-0.471 0.175,-0.463 0.196,-0.463C0.217,-0.463 0.233,-0.471 0.246,-0.486C0.259,-0.501 0.265,-0.524 0.265,-0.555C0.265,-0.586 0.259,-0.609 0.246,-0.624C0.233,-0.639 0.217,-0.646 0.196,-0.646ZM0.543,-0.7L0.641,-0.7L0.238,-0L0.14,-0L0.543,-0.7ZM0.439,-0.145C0.439,-0.193 0.453,-0.231 0.481,-0.258C0.51,-0.284 0.545,-0.298 0.587,-0.298C0.629,-0.298 0.664,-0.284 0.693,-0.258C0.721,-0.231 0.735,-0.193 0.735,-0.145C0.735,-0.098 0.721,-0.06 0.693,-0.034C0.664,-0.007 0.629,0.007 0.587,0.007C0.545,0.007 0.51,-0.007 0.481,-0.034C0.453,-0.06 0.439,-0.098 0.439,-0.145ZM0.587,-0.236C0.566,-0.236 0.549,-0.229 0.536,-0.214C0.523,-0.199 0.517,-0.176 0.517,-0.145C0.517,-0.114 0.523,-0.092 0.536,-0.077C0.549,-0.062 0.566,-0.055 0.587,-0.055C0.607,-0.055 0.624,-0.062 0.637,-0.077C0.65,-0.092 0.656,-0.114 0.656,-0.145C0.656,-0.176 0.65,-0.199 0.637,-0.214C0.624,-0.229 0.607,-0.236 0.587,-0.236Z" style="fill:rgb(112,0,132);fill-rule:nonzero;"/>
                </g>
                <g transform="matrix(10.160199,0,0,10.160199,5464.991984,4913.226269)">
                    <path d="M0.449,-0.415L0.438,-0.412L0.438,-0.72L0.533,-0.72L0.533,-0L0.447,-0L0.44,-0.075C0.423,-0.052 0.401,-0.033 0.372,-0.017C0.344,-0.001 0.31,0.007 0.269,0.007C0.224,0.007 0.184,-0.004 0.15,-0.025C0.117,-0.046 0.091,-0.076 0.072,-0.115C0.053,-0.154 0.043,-0.199 0.043,-0.25C0.043,-0.301 0.053,-0.346 0.072,-0.385C0.091,-0.424 0.117,-0.454 0.15,-0.475C0.184,-0.496 0.224,-0.507 0.269,-0.507C0.312,-0.507 0.349,-0.498 0.38,-0.48C0.41,-0.463 0.433,-0.441 0.449,-0.415ZM0.144,-0.25C0.144,-0.199 0.157,-0.157 0.184,-0.126C0.211,-0.095 0.246,-0.079 0.291,-0.079C0.318,-0.079 0.343,-0.086 0.365,-0.099C0.387,-0.112 0.405,-0.132 0.418,-0.158C0.431,-0.183 0.438,-0.214 0.438,-0.25C0.438,-0.286 0.431,-0.317 0.418,-0.342C0.405,-0.367 0.387,-0.387 0.365,-0.401C0.343,-0.414 0.318,-0.421 0.291,-0.421C0.247,-0.421 0.212,-0.405 0.184,-0.374C0.158,-0.343 0.144,-0.301 0.144,-0.25Z" style="fill:rgb(112,0,132);fill-rule:nonzero;"/>
                </g>
                <g transform="matrix(10.160199,0,0,10.160199,5471.128745,4913.226269)">
                    <path d="M0.124,0.006C0.106,0.006 0.091,-0 0.078,-0.013C0.065,-0.026 0.059,-0.041 0.059,-0.059C0.059,-0.078 0.065,-0.093 0.078,-0.106C0.091,-0.119 0.106,-0.125 0.124,-0.125C0.142,-0.125 0.157,-0.119 0.17,-0.106C0.183,-0.093 0.189,-0.078 0.189,-0.059C0.189,-0.041 0.183,-0.026 0.17,-0.013C0.157,-0 0.142,0.006 0.124,0.006Z" style="fill:rgb(112,0,132);fill-rule:nonzero;"/>
                </g>
                <g transform="matrix(10.160199,0,0,10.160199,5476.49333,4913.226269)">
                    <path d="M0.048,-0.555C0.048,-0.603 0.062,-0.64 0.09,-0.667C0.118,-0.694 0.153,-0.707 0.196,-0.707C0.238,-0.707 0.273,-0.694 0.301,-0.667C0.33,-0.64 0.344,-0.603 0.344,-0.555C0.344,-0.507 0.33,-0.47 0.301,-0.443C0.273,-0.416 0.238,-0.402 0.196,-0.402C0.153,-0.402 0.118,-0.416 0.09,-0.443C0.062,-0.47 0.048,-0.507 0.048,-0.555ZM0.196,-0.646C0.175,-0.646 0.158,-0.639 0.145,-0.624C0.132,-0.609 0.126,-0.586 0.126,-0.555C0.126,-0.524 0.132,-0.501 0.145,-0.486C0.158,-0.471 0.175,-0.463 0.196,-0.463C0.217,-0.463 0.233,-0.471 0.246,-0.486C0.259,-0.501 0.265,-0.524 0.265,-0.555C0.265,-0.586 0.259,-0.609 0.246,-0.624C0.233,-0.639 0.217,-0.646 0.196,-0.646ZM0.543,-0.7L0.641,-0.7L0.238,-0L0.14,-0L0.543,-0.7ZM0.439,-0.145C0.439,-0.193 0.453,-0.231 0.481,-0.258C0.51,-0.284 0.545,-0.298 0.587,-0.298C0.629,-0.298 0.664,-0.284 0.693,-0.258C0.721,-0.231 0.735,-0.193 0.735,-0.145C0.735,-0.098 0.721,-0.06 0.693,-0.034C0.664,-0.007 0.629,0.007 0.587,0.007C0.545,0.007 0.51,-0.007 0.481,-0.034C0.453,-0.06 0.439,-0.098 0.439,-0.145ZM0.587,-0.236C0.566,-0.236 0.549,-0.229 0.536,-0.214C0.523,-0.199 0.517,-0.176 0.517,-0.145C0.517,-0.114 0.523,-0.092 0.536,-0.077C0.549,-0.062 0.566,-0.055 0.587,-0.055C0.607,-0.055 0.624,-0.062 0.637,-0.077C0.65,-0.092 0.656,-0.114 0.656,-0.145C0.656,-0.176 0.65,-0.199 0.637,-0.214C0.624,-0.229 0.607,-0.236 0.587,-0.236Z" style="fill:rgb(112,0,132);fill-rule:nonzero;"/>
                </g>
                <g transform="matrix(10.160199,0,0,10.160199,5484.438606,4913.226269)">
                    <path d="M0.497,-0.506C0.497,-0.54 0.486,-0.567 0.464,-0.587C0.441,-0.606 0.409,-0.616 0.367,-0.616L0.179,-0.616L0.179,-0.397L0.368,-0.397C0.409,-0.397 0.44,-0.407 0.463,-0.426C0.486,-0.445 0.497,-0.472 0.497,-0.506ZM0.079,-0L0.079,-0.7L0.376,-0.7C0.425,-0.7 0.466,-0.692 0.499,-0.675C0.532,-0.658 0.556,-0.636 0.573,-0.609C0.589,-0.582 0.597,-0.551 0.597,-0.518C0.597,-0.487 0.591,-0.46 0.58,-0.439C0.568,-0.418 0.553,-0.401 0.533,-0.388C0.514,-0.375 0.493,-0.366 0.469,-0.361L0.469,-0.354C0.498,-0.35 0.523,-0.342 0.544,-0.329C0.566,-0.316 0.583,-0.297 0.596,-0.274C0.608,-0.251 0.614,-0.222 0.614,-0.187C0.614,-0.152 0.605,-0.121 0.587,-0.092C0.569,-0.063 0.543,-0.041 0.51,-0.025C0.476,-0.008 0.435,-0 0.387,-0L0.079,-0ZM0.179,-0.084L0.378,-0.084C0.421,-0.084 0.454,-0.094 0.479,-0.114C0.503,-0.133 0.515,-0.161 0.515,-0.198C0.515,-0.235 0.502,-0.264 0.477,-0.284C0.451,-0.303 0.417,-0.313 0.375,-0.313L0.179,-0.313L0.179,-0.084Z" style="fill:rgb(112,0,132);fill-rule:nonzero;"/>
                </g>
                <g transform="matrix(10.160199,0,0,10.160199,5491.205299,4913.226269)">
                    <path d="M0.124,0.006C0.106,0.006 0.091,-0 0.078,-0.013C0.065,-0.026 0.059,-0.041 0.059,-0.059C0.059,-0.078 0.065,-0.093 0.078,-0.106C0.091,-0.119 0.106,-0.125 0.124,-0.125C0.142,-0.125 0.157,-0.119 0.17,-0.106C0.183,-0.093 0.189,-0.078 0.189,-0.059C0.189,-0.041 0.183,-0.026 0.17,-0.013C0.157,-0 0.142,0.006 0.124,0.006Z" style="fill:rgb(112,0,132);fill-rule:nonzero;"/>
                </g>
                <g transform="matrix(10.160199,0,0,10.160199,5496.569884,4913.226269)">
                    <path d="M0.048,-0.555C0.048,-0.603 0.062,-0.64 0.09,-0.667C0.118,-0.694 0.153,-0.707 0.196,-0.707C0.238,-0.707 0.273,-0.694 0.301,-0.667C0.33,-0.64 0.344,-0.603 0.344,-0.555C0.344,-0.507 0.33,-0.47 0.301,-0.443C0.273,-0.416 0.238,-0.402 0.196,-0.402C0.153,-0.402 0.118,-0.416 0.09,-0.443C0.062,-0.47 0.048,-0.507 0.048,-0.555ZM0.196,-0.646C0.175,-0.646 0.158,-0.639 0.145,-0.624C0.132,-0.609 0.126,-0.586 0.126,-0.555C0.126,-0.524 0.132,-0.501 0.145,-0.486C0.158,-0.471 0.175,-0.463 0.196,-0.463C0.217,-0.463 0.233,-0.471 0.246,-0.486C0.259,-0.501 0.265,-0.524 0.265,-0.555C0.265,-0.586 0.259,-0.609 0.246,-0.624C0.233,-0.639 0.217,-0.646 0.196,-0.646ZM0.543,-0.7L0.641,-0.7L0.238,-0L0.14,-0L0.543,-0.7ZM0.439,-0.145C0.439,-0.193 0.453,-0.231 0.481,-0.258C0.51,-0.284 0.545,-0.298 0.587,-0.298C0.629,-0.298 0.664,-0.284 0.693,-0.258C0.721,-0.231 0.735,-0.193 0.735,-0.145C0.735,-0.098 0.721,-0.06 0.693,-0.034C0.664,-0.007 0.629,0.007 0.587,0.007C0.545,0.007 0.51,-0.007 0.481,-0.034C0.453,-0.06 0.439,-0.098 0.439,-0.145ZM0.587,-0.236C0.566,-0.236 0.549,-0.229 0.536,-0.214C0.523,-0.199 0.517,-0.176 0.517,-0.145C0.517,-0.114 0.523,-0.092 0.536,-0.077C0.549,-0.062 0.566,-0.055 0.587,-0.055C0.607,-0.055 0.624,-0.062 0.637,-0.077C0.65,-0.092 0.656,-0.114 0.656,-0.145C0.656,-0.176 0.65,-0.199 0.637,-0.214C0.624,-0.229 0.607,-0.236 0.587,-0.236Z" style="fill:rgb(112,0,132);fill-rule:nonzero;"/>
                </g>
                <g transform="matrix(10.160199,0,0,10.160199,5504.51516,4913.226269)">
                    <path d="M0.532,-0.7L0.643,-0.7L0.384,-0.26L0.384,-0L0.285,-0L0.285,-0.259L0.026,-0.7L0.137,-0.7L0.334,-0.351L0.532,-0.7Z" style="fill:rgb(112,0,132);fill-rule:nonzero;"/>
                </g>
            </g>
            <g>
                <g transform="matrix(10.160199,0,0,10.160199,5457.046708,4929.457338)">
                    <path d="M0.048,-0.555C0.048,-0.603 0.062,-0.64 0.09,-0.667C0.118,-0.694 0.153,-0.707 0.196,-0.707C0.238,-0.707 0.273,-0.694 0.301,-0.667C0.33,-0.64 0.344,-0.603 0.344,-0.555C0.344,-0.507 0.33,-0.47 0.301,-0.443C0.273,-0.416 0.238,-0.402 0.196,-0.402C0.153,-0.402 0.118,-0.416 0.09,-0.443C0.062,-0.47 0.048,-0.507 0.048,-0.555ZM0.196,-0.646C0.175,-0.646 0.158,-0.639 0.145,-0.624C0.132,-0.609 0.126,-0.586 0.126,-0.555C0.126,-0.524 0.132,-0.501 0.145,-0.486C0.158,-0.471 0.175,-0.463 0.196,-0.463C0.217,-0.463 0.233,-0.471 0.246,-0.486C0.259,-0.501 0.265,-0.524 0.265,-0.555C0.265,-0.586 0.259,-0.609 0.246,-0.624C0.233,-0.639 0.217,-0.646 0.196,-0.646ZM0.543,-0.7L0.641,-0.7L0.238,-0L0.14,-0L0.543,-0.7ZM0.439,-0.145C0.439,-0.193 0.453,-0.231 0.481,-0.258C0.51,-0.284 0.545,-0.298 0.587,-0.298C0.629,-0.298 0.664,-0.284 0.693,-0.258C0.721,-0.231 0.735,-0.193 0.735,-0.145C0.735,-0.098 0.721,-0.06 0.693,-0.034C0.664,-0.007 0.629,0.007 0.587,0.007C0.545,0.007 0.51,-0.007 0.481,-0.034C0.453,-0.06 0.439,-0.098 0.439,-0.145ZM0.587,-0.236C0.566,-0.236 0.549,-0.229 0.536,-0.214C0.523,-0.199 0.517,-0.176 0.517,-0.145C0.517,-0.114 0.523,-0.092 0.536,-0.077C0.549,-0.062 0.566,-0.055 0.587,-0.055C0.607,-0.055 0.624,-0.062 0.637,-0.077C0.65,-0.092 0.656,-0.114 0.656,-0.145C0.656,-0.176 0.65,-0.199 0.637,-0.214C0.624,-0.229 0.607,-0.236 0.587,-0.236Z" style="fill:rgb(112,0,132);fill-rule:nonzero;"/>
                </g>
                <g transform="matrix(10.160199,0,0,10.160199,5464.991984,4929.457338)">
                    <path d="M0.413,-0.5L0.511,-0.5L0.221,0.2L0.128,0.2L0.216,-0.01L0.018,-0.5L0.122,-0.5L0.267,-0.121L0.413,-0.5Z" style="fill:rgb(112,0,132);fill-rule:nonzero;"/>
                </g>
                <g transform="matrix(10.160199,0,0,10.160199,5470.36673,4929.457338)">
                    <rect x="0.059" y="-0.32" width="0.404" height="0.084" style="fill:rgb(112,0,132);fill-rule:nonzero;"/>
                </g>
                <g transform="matrix(10.160199,0,0,10.160199,5475.680514,4929.457338)">
                    <path d="M0.048,-0.555C0.048,-0.603 0.062,-0.64 0.09,-0.667C0.118,-0.694 0.153,-0.707 0.196,-0.707C0.238,-0.707 0.273,-0.694 0.301,-0.667C0.33,-0.64 0.344,-0.603 0.344,-0.555C0.344,-0.507 0.33,-0.47 0.301,-0.443C0.273,-0.416 0.238,-0.402 0.196,-0.402C0.153,-0.402 0.118,-0.416 0.09,-0.443C0.062,-0.47 0.048,-0.507 0.048,-0.555ZM0.196,-0.646C0.175,-0.646 0.158,-0.639 0.145,-0.624C0.132,-0.609 0.126,-0.586 0.126,-0.555C0.126,-0.524 0.132,-0.501 0.145,-0.486C0.158,-0.471 0.175,-0.463 0.196,-0.463C0.217,-0.463 0.233,-0.471 0.246,-0.486C0.259,-0.501 0.265,-0.524 0.265,-0.555C0.265,-0.586 0.259,-0.609 0.246,-0.624C0.233,-0.639 0.217,-0.646 0.196,-0.646ZM0.543,-0.7L0.641,-0.7L0.238,-0L0.14,-0L0.543,-0.7ZM0.439,-0.145C0.439,-0.193 0.453,-0.231 0.481,-0.258C0.51,-0.284 0.545,-0.298 0.587,-0.298C0.629,-0.298 0.664,-0.284 0.693,-0.258C0.721,-0.231 0.735,-0.193 0.735,-0.145C0.735,-0.098 0.721,-0.06 0.693,-0.034C0.664,-0.007 0.629,0.007 0.587,0.007C0.545,0.007 0.51,-0.007 0.481,-0.034C0.453,-0.06 0.439,-0.098 0.439,-0.145ZM0.587,-0.236C0.566,-0.236 0.549,-0.229 0.536,-0.214C0.523,-0.199 0.517,-0.176 0.517,-0.145C0.517,-0.114 0.523,-0.092 0.536,-0.077C0.549,-0.062 0.566,-0.055 0.587,-0.055C0.607,-0.055 0.624,-0.062 0.637,-0.077C0.65,-0.092 0.656,-0.114 0.656,-0.145C0.656,-0.176 0.65,-0.199 0.637,-0.214C0.624,-0.229 0.607,-0.236 0.587,-0.236Z" style="fill:rgb(112,0,132);fill-rule:nonzero;"/>
                </g>
                <g transform="matrix(10.160199,0,0,10.160199,5483.62579,4929.457338)">
                    <path d="M0.072,-0.5L0.158,-0.5L0.164,-0.442C0.18,-0.462 0.2,-0.478 0.224,-0.489C0.248,-0.501 0.275,-0.507 0.305,-0.507C0.339,-0.507 0.37,-0.499 0.398,-0.484C0.425,-0.47 0.447,-0.447 0.463,-0.418C0.48,-0.447 0.503,-0.47 0.534,-0.484C0.565,-0.499 0.598,-0.507 0.635,-0.507C0.673,-0.507 0.707,-0.499 0.736,-0.482C0.764,-0.466 0.787,-0.442 0.803,-0.41C0.819,-0.378 0.827,-0.338 0.827,-0.29L0.827,-0L0.732,-0L0.732,-0.278C0.732,-0.325 0.722,-0.36 0.702,-0.385C0.682,-0.409 0.653,-0.421 0.616,-0.421C0.578,-0.421 0.548,-0.408 0.526,-0.383C0.504,-0.358 0.493,-0.321 0.493,-0.272L0.493,-0L0.398,-0L0.398,-0.278C0.398,-0.325 0.389,-0.36 0.37,-0.385C0.351,-0.409 0.323,-0.421 0.286,-0.421C0.248,-0.421 0.218,-0.408 0.198,-0.383C0.177,-0.358 0.166,-0.321 0.166,-0.272L0.166,-0L0.072,-0L0.072,-0.5Z" style="fill:rgb(112,0,132);fill-rule:nonzero;"/>
                </g>
                <g transform="matrix(10.160199,0,0,10.160199,5492.668368,4929.457338)">
                    <rect x="0.059" y="-0.32" width="0.404" height="0.084" style="fill:rgb(112,0,132);fill-rule:nonzero;"/>
                </g>
                <g transform="matrix(10.160199,0,0,10.160199,5497.982152,4929.457338)">
                    <path d="M0.048,-0.555C0.048,-0.603 0.062,-0.64 0.09,-0.667C0.118,-0.694 0.153,-0.707 0.196,-0.707C0.238,-0.707 0.273,-0.694 0.301,-0.667C0.33,-0.64 0.344,-0.603 0.344,-0.555C0.344,-0.507 0.33,-0.47 0.301,-0.443C0.273,-0.416 0.238,-0.402 0.196,-0.402C0.153,-0.402 0.118,-0.416 0.09,-0.443C0.062,-0.47 0.048,-0.507 0.048,-0.555ZM0.196,-0.646C0.175,-0.646 0.158,-0.639 0.145,-0.624C0.132,-0.609 0.126,-0.586 0.126,-0.555C0.126,-0.524 0.132,-0.501 0.145,-0.486C0.158,-0.471 0.175,-0.463 0.196,-0.463C0.217,-0.463 0.233,-0.471 0.246,-0.486C0.259,-0.501 0.265,-0.524 0.265,-0.555C0.265,-0.586 0.259,-0.609 0.246,-0.624C0.233,-0.639 0.217,-0.646 0.196,-0.646ZM0.543,-0.7L0.641,-0.7L0.238,-0L0.14,-0L0.543,-0.7ZM0.439,-0.145C0.439,-0.193 0.453,-0.231 0.481,-0.258C0.51,-0.284 0.545,-0.298 0.587,-0.298C0.629,-0.298 0.664,-0.284 0.693,-0.258C0.721,-0.231 0.735,-0.193 0.735,-0.145C0.735,-0.098 0.721,-0.06 0.693,-0.034C0.664,-0.007 0.629,0.007 0.587,0.007C0.545,0.007 0.51,-0.007 0.481,-0.034C0.453,-0.06 0.439,-0.098 0.439,-0.145ZM0.587,-0.236C0.566,-0.236 0.549,-0.229 0.536,-0.214C0.523,-0.199 0.517,-0.176 0.517,-0.145C0.517,-0.114 0.523,-0.092 0.536,-0.077C0.549,-0.062 0.566,-0.055 0.587,-0.055C0.607,-0.055 0.624,-0.062 0.637,-0.077C0.65,-0.092 0.656,-0.114 0.656,-0.145C0.656,-0.176 0.65,-0.199 0.637,-0.214C0.624,-0.229 0.607,-0.236 0.587,-0.236Z" style="fill:rgb(112,0,132);fill-rule:nonzero;"/>
                </g>
                <g transform="matrix(10.160199,0,0,10.160199,5505.927428,4929.457338)">
                    <path d="M0.449,-0.415L0.438,-0.412L0.438,-0.72L0.533,-0.72L0.533,-0L0.447,-0L0.44,-0.075C0.423,-0.052 0.401,-0.033 0.372,-0.017C0.344,-0.001 0.31,0.007 0.269,0.007C0.224,0.007 0.184,-0.004 0.15,-0.025C0.117,-0.046 0.091,-0.076 0.072,-0.115C0.053,-0.154 0.043,-0.199 0.043,-0.25C0.043,-0.301 0.053,-0.346 0.072,-0.385C0.091,-0.424 0.117,-0.454 0.15,-0.475C0.184,-0.496 0.224,-0.507 0.269,-0.507C0.312,-0.507 0.349,-0.498 0.38,-0.48C0.41,-0.463 0.433,-0.441 0.449,-0.415ZM0.144,-0.25C0.144,-0.199 0.157,-0.157 0.184,-0.126C0.211,-0.095 0.246,-0.079 0.291,-0.079C0.318,-0.079 0.343,-0.086 0.365,-0.099C0.387,-0.112 0.405,-0.132 0.418,-0.158C0.431,-0.183 0.438,-0.214 0.438,-0.25C0.438,-0.286 0.431,-0.317 0.418,-0.342C0.405,-0.367 0.387,-0.387 0.365,-0.401C0.343,-0.414 0.318,-0.421 0.291,-0.421C0.247,-0.421 0.212,-0.405 0.184,-0.374C0.158,-0.343 0.144,-0.301 0.144,-0.25Z" style="fill:rgb(112,0,132);fill-rule:nonzero;"/>
                </g>
            </g>
        </g>
    </g>
</svg>
